<!-- Icon generated from public domain logo -->
<svg width="22" height="22" viewBox="0 0 22 22" fill="none" xmlns="http://www.w3.org/2000/svg">
  <path d="M0.792683 0.291856C0.635385 0.396838 0.399438 0.659294 0.268357 0.886755L0.0324095 1.28919L0.00619317 10.7376C-0.0112844 17.6051 0.00619317 20.2822 0.0848422 20.5446C0.215924 21.0258 0.635385 21.5245 1.07232 21.7257C1.41314 21.8832 1.87629 21.8919 10.9821 21.8919C19.4063 21.8919 20.5685 21.8744 20.8569 21.7607C21.2676 21.5857 21.5385 21.3233 21.7745 20.8858L21.9667 20.5359L21.993 11.2187C22.0104 6.09211 21.993 1.73536 21.9667 1.54289C21.9056 1.09672 21.5648 0.56306 21.189 0.300605L20.9094 0.108138H10.9908H1.08106L0.792683 0.291856ZM17.4663 0.519317C17.4575 0.56306 16.9944 1.07922 16.4176 1.68287L15.3864 2.76768L15.937 3.10013C16.671 3.53755 17.3789 4.26368 17.7372 4.95481L18.0343 5.51471L19.7384 3.67753L21.4424 1.84909L21.4686 3.97498C21.4774 5.14727 21.4774 9.29406 21.4686 13.1959L21.4424 20.2822L21.1977 20.6496C21.0667 20.8508 20.8045 21.0958 20.6035 21.2008C20.2452 21.3845 20.1666 21.3845 11.7074 21.4282L3.17837 21.4807L3.40558 21.227C3.52792 21.087 5.03099 19.4686 6.74379 17.6314C8.45659 15.7942 9.86354 14.272 9.86354 14.2457C9.86354 14.2195 9.65381 14.1407 9.40912 14.0707C8.35173 13.7558 7.59145 13.0909 7.20695 12.1461L7.00596 11.6649L3.86873 15.0768C2.14719 16.9578 0.722773 18.5325 0.705296 18.5762C0.687818 18.62 0.635385 18.655 0.591691 18.655C0.478087 18.655 0.486826 1.99781 0.60043 1.58663C0.705296 1.2017 1.23836 0.659294 1.59665 0.554311C1.91999 0.458078 17.4663 0.431832 17.4663 0.519317Z" fill="currentColor"/>
  <path d="M10.1255 2.64524C7.87968 2.93394 6.12318 4.39494 5.44156 6.52957C5.18813 7.35193 5.04831 8.52423 5.17066 8.88292C5.26678 9.18037 5.58138 9.32034 5.88724 9.20661C6.13192 9.11038 6.28048 8.81293 6.28048 8.393C6.28048 8.23553 6.34165 7.84185 6.41156 7.50066C6.90967 5.16481 8.68364 3.76505 11.1742 3.7563C12.6773 3.7563 13.8832 4.21997 14.8532 5.19105C16.0854 6.41584 16.5398 8.25303 15.9805 9.75777C15.6747 10.5714 15.1766 11.21 13.7958 12.5835C12.6947 13.6771 12.4238 13.9833 12.1792 14.4995C11.8471 15.1643 11.7073 15.9167 11.6985 16.9928C11.6985 17.7714 11.515 18.1563 11.0431 18.3575C10.6237 18.5325 10.2217 18.515 9.7323 18.2963C9.24293 18.0776 8.92833 18.1301 8.84968 18.4363C8.70112 19.0399 9.15554 19.3986 10.1955 19.4949C11.3752 19.6086 12.1966 19.2236 12.6161 18.3663C12.8171 17.9464 12.8608 17.7277 12.9132 16.7128C13.0093 15.0244 13.088 14.8756 14.8357 13.1084C15.596 12.3298 16.3825 11.4462 16.5835 11.14C17.0554 10.3964 17.2913 9.61779 17.3525 8.59422C17.4749 6.28461 16.3476 4.3512 14.2765 3.34512C13.088 2.76772 11.4014 2.47902 10.1255 2.64524Z" fill="currentColor"/>
  <path d="M10.0384 4.60486C8.9548 4.91981 8.02849 5.64594 7.59155 6.52079C7.28569 7.13318 7.26822 7.36939 7.50416 7.5881C7.79254 7.85056 8.06344 7.70184 8.54408 6.99321C9.34805 5.80341 9.84616 5.49721 11.0434 5.49721C11.7163 5.48846 11.8998 5.52346 12.3192 5.71592C12.9746 6.02212 13.4902 6.55578 13.8136 7.24691C14.0495 7.75433 14.0757 7.88555 14.0495 8.4892C14.0058 9.30281 13.7087 9.99394 13.0096 10.8425C12.5377 11.4287 12.4853 11.6299 12.73 11.8574C13.1057 12.1986 13.6737 11.8836 14.3728 10.9388C15.0457 10.0202 15.3428 8.90038 15.1943 7.8943C14.9933 6.59952 14.1107 5.44472 12.8698 4.85857C12.2581 4.56987 12.127 4.53488 11.3143 4.51738C10.7637 4.49988 10.2831 4.53488 10.0384 4.60486Z" fill="currentColor"/>
  <path d="M15.4563 16.1179V16.5553H15.9369H16.4176V17.9551V19.3549H16.8982H17.3788V17.9551V16.5553H17.8595H18.3401V16.1179V15.6805H16.8982H15.4563V16.1179Z" fill="currentColor"/>
</svg>
