<!-- Icon from noun project -->
<svg width="22" height="22" viewBox="-4 -2  22 22" fill="none" xmlns="http://www.w3.org/2000/svg">
  <path d="M0.949902 17.7H13.0499C13.5999 17.7 13.5999 17.7 13.5999 17.15V6.14997C13.5999 5.59997 13.5999 5.59997 13.0499 5.59997H0.949902C0.399902 5.59997 0.399902 5.59997 0.399902 6.14997V17.15C0.399902 17.7 0.399902 17.7 0.949902 17.7ZM3.74368 16.0388C3.64485 14.9276 3.61134 13.8276 3.58985 12.7938C3.17221 12.75 2.94103 12.6614 2.95221 12.53L3.06221 10.9676C3.11721 10.1426 3.60103 9.59262 4.62456 9.59262C5.69191 9.59262 6.19721 10.1426 6.25221 10.9676L6.36221 12.53C6.37338 12.6623 6.10956 12.7276 5.72456 12.7938C5.6919 13.8276 5.66956 14.9276 5.55956 16.0388C5.55956 16.05 3.74456 16.05 3.74456 16.0388H3.74368ZM4.64603 9.01001C4.17339 9.01001 3.76603 8.61384 3.76603 8.10766C3.76603 7.62384 4.17339 7.25001 4.64603 7.25001C5.12986 7.25001 5.52603 7.62384 5.52603 8.10766C5.52603 8.61384 5.12986 9.01001 4.64603 9.01001ZM8.44103 16.0388C8.34221 14.9276 8.30869 13.8276 8.28721 12.7938C7.86956 12.75 7.63838 12.6614 7.64956 12.53L7.75956 10.9676C7.81456 10.1426 8.29838 9.59262 9.32191 9.59262C10.3893 9.59262 10.8946 10.1426 10.9496 10.9676L11.0596 12.53C11.0707 12.6623 10.8069 12.7276 10.4219 12.7938C10.3893 13.8276 10.3669 14.9276 10.2569 16.0388C10.2569 16.05 8.44191 16.05 8.44191 16.0388H8.44103ZM9.37603 9.01001C8.89221 9.01001 8.48486 8.61384 8.48486 8.10766C8.48486 7.62384 8.89221 7.25001 9.37603 7.25001C9.85986 7.25001 10.2449 7.62384 10.2449 8.10766C10.2449 8.61384 9.85986 9.01001 9.37603 9.01001ZM3.03981 3.95002H6.55981C7.09864 3.95002 7.09864 3.95001 6.79099 3.49884L5.00864 0.9464C4.79981 0.627576 4.79981 0.627576 4.59099 0.9464L2.80864 3.49884C2.50099 3.95001 2.50099 3.95002 3.03981 3.95002ZM8.99103 3.65266C9.19986 3.96031 9.19986 3.96031 9.40868 3.65266L11.191 1.10022C11.4987 0.649048 11.4987 0.649048 10.9599 0.649048H7.43986C6.90104 0.649048 6.90103 0.649048 7.20868 1.10022L8.99103 3.65266Z" fill="currentColor"/>
</svg>
