<!-- Icon from noun project -->
<svg width="22" height="22" viewBox="-2  0 22 22" fill="none" xmlns="http://www.w3.org/2000/svg">
  <path d="M6.57998 19.5363C4.2262 19.5363 2.28998 17.6224 2.28998 15.2463C2.28998 13.7724 3.03763 12.4525 4.20381 11.6825L4.07146 9.57013C1.89382 10.5378 0.375244 12.7163 0.375244 15.2463C0.375244 18.6788 3.16902 21.4501 6.57902 21.4501C9.52658 21.4501 12.0128 19.3825 12.629 16.6101H10.6267C10.056 18.3039 8.44988 19.5363 6.57977 19.5363L6.57998 19.5363Z" fill="currentColor" fill-opacity="0.92"/>
  <path d="M17.6238 20.6362L16.0838 13.7062C15.9077 12.9139 15.2262 12.3201 14.4338 12.2324L10.4963 11.8362C10.2763 11.8139 10.1001 11.6601 10.0786 11.4401L9.92481 10.5824L13.7086 10.6486C13.8848 10.6486 14.0386 10.4947 14.0386 10.3186V9.65858C14.0386 9.50475 13.9062 9.35093 13.7524 9.35093L9.63863 8.8671L9.28628 6.75475C9.17628 6.05093 8.5601 5.5224 7.83393 5.5224H6.88775C6.0301 5.5224 5.3701 6.24858 5.41393 7.08475L5.78775 12.9148C5.87541 14.1686 6.9101 15.1372 8.16397 15.1372H13.5978C13.8178 15.1372 14.0154 15.291 14.0601 15.4895L15.4463 20.8133C15.5339 21.1433 15.8201 21.3633 16.1501 21.3633H17.0739C17.4263 21.3401 17.7124 21.0101 17.6239 20.6363L17.6238 20.6362Z" fill="currentColor" fill-opacity="0.92"/>
  <path d="M9.26387 2.72757C9.26387 3.93071 8.28933 4.90608 7.08622 4.90608C5.88311 4.90608 4.90771 3.93069 4.90771 2.72757C4.90771 1.52532 5.88311 0.549927 7.08622 0.549927C8.28933 0.549927 9.26387 1.52532 9.26387 2.72757Z" fill="currentColor" fill-opacity="0.92"/>
</svg>
