<!-- Icon from noun project -->
<svg width="22" height="22" viewBox="-3 -1 22 22" fill="none" xmlns="http://www.w3.org/2000/svg">
  <path d="M15.6125 19.4162C15.5463 19.4385 15.5025 19.46 15.4363 19.46C15.2601 19.46 15.1063 19.3724 15.0401 19.1962L11.6739 11.87L12.4439 11.4523L15.8315 18.8448C15.9423 19.0639 15.8323 19.3277 15.6123 19.4163L15.6125 19.4162ZM6.19624 4.05998C7.16389 4.05998 7.95624 3.26763 7.95624 2.29998C7.95624 1.33233 7.16389 0.539978 6.19624 0.539978C5.22859 0.539978 4.43624 1.33233 4.43624 2.29998C4.43624 3.26763 5.22774 4.05998 6.19624 4.05998ZM11.8725 9.82376L9.21002 4.93998H3.18246L0.124023 10.55L1.2902 11.1876L3.6002 6.92007V6.89772C3.6002 6.87538 3.62254 6.87538 3.62254 6.85389C3.62254 6.85389 3.64489 6.83155 3.64489 6.81007L3.66723 6.78772C3.66723 6.78772 3.68957 6.76538 3.71106 6.76538C3.71106 6.76538 3.7334 6.74304 3.75489 6.74304C3.77723 6.74304 3.77723 6.72069 3.79871 6.72069C3.82106 6.72069 3.82106 6.69835 3.84254 6.69835C3.86489 6.69835 3.86489 6.67601 3.88637 6.67601H3.9302H3.97403H3.99637H4.01871H4.06254H4.10637C4.12871 6.67601 4.12871 6.67601 4.1502 6.69835C4.17254 6.69835 4.17254 6.69835 4.19403 6.72069H4.21637H4.23871C4.26106 6.72069 4.26106 6.74304 4.28254 6.74304C4.30488 6.74304 4.30488 6.76538 4.30488 6.76538C4.32723 6.76538 4.32723 6.78772 4.32723 6.78772C4.34957 6.78772 4.34957 6.81007 4.34957 6.83155C4.34957 6.85389 4.37191 6.85389 4.37191 6.87538C4.37191 6.89772 4.39426 6.89772 4.39426 6.91921C4.39426 6.94155 4.39426 6.94155 4.4166 6.96304V7.00686V7.05069V7.09452V7.11686L4.41402 18.58H5.73402V12.86C5.73402 12.6176 5.93168 12.42 6.17402 12.42C6.41637 12.42 6.61402 12.6176 6.61402 12.86V18.58H7.93402V7.11752V7.09518V7.05135V7.00752V6.9637C7.93402 6.94135 7.93402 6.94135 7.95637 6.91987C7.95637 6.91987 7.95637 6.89752 7.97871 6.87604C7.97871 6.8537 8.00105 6.8537 8.00105 6.83221C8.00105 6.80987 8.02339 6.80987 8.02339 6.80987L8.06808 6.76518C8.09042 6.76518 8.09042 6.74284 8.11191 6.74284H8.13425H8.1566C8.17894 6.74284 8.17894 6.7205 8.20042 6.7205C8.22277 6.7205 8.22277 6.72049 8.24425 6.69815H8.28808H8.33191H8.35425H8.3766H8.42042H8.46425C8.4866 6.69815 8.4866 6.69815 8.50808 6.7205C8.53043 6.7205 8.53042 6.72049 8.55191 6.74284C8.57425 6.74284 8.57425 6.76518 8.59574 6.76518C8.59574 6.76518 8.61808 6.78752 8.63957 6.78752C8.63957 6.78752 8.66191 6.80987 8.68339 6.80987L8.70574 6.83221C8.70574 6.85455 8.72808 6.85455 8.72808 6.87604C8.72808 6.87604 8.75042 6.89838 8.75042 6.91987V6.94221L10.9729 11.0122L11.0829 11.2099L12.249 10.5722L11.8725 9.82376Z" fill="currentColor"/>
</svg>
