<!-- Icon from noun project -->
<svg width="22" height="22" viewBox="-3 0 22 22" fill="none" xmlns="http://www.w3.org/2000/svg">
  <path d="M4.03968 0.621163C4.539 0.53242 5.01824 0.866094 5.10578 1.36423C5.19334 1.86355 4.85966 2.34279 4.36035 2.43033C3.86103 2.51907 3.38179 2.18421 3.29425 1.6825C3.20669 1.18555 3.54036 0.707493 4.03968 0.621133V0.621163ZM3.93319 0.0164922C3.10019 0.164398 2.54289 0.958364 2.69077 1.79137C2.83865 2.62437 3.63264 3.18167 4.46565 3.03497C5.30102 2.88706 5.85716 2.09192 5.70925 1.25891C5.56253 0.424726 4.76738 -0.130208 3.93319 0.0164922Z" fill="currentColor"/>
  <path d="M12.7898 15.9194C12.9022 16.5678 12.4691 17.1866 11.8243 17.299C11.1735 17.4114 10.557 16.9831 10.441 16.3347C10.3263 15.6851 10.7593 15.0674 11.4089 14.9526C12.0562 14.839 12.6726 15.2709 12.7898 15.9194Z" fill="currentColor"/>
  <path d="M12.8774 11.5272L11.6077 9.92622C11.6018 9.91912 11.5935 9.91793 11.5888 9.91083C11.5119 9.81854 11.4208 9.74281 11.3178 9.68247C11.3036 9.67418 11.2918 9.6659 11.2776 9.6588C11.1735 9.60437 11.0611 9.57006 10.9427 9.55349C10.9309 9.55231 10.9203 9.55112 10.9096 9.54876C10.8185 9.54047 10.7262 9.53811 10.6327 9.55467L9.62934 9.73334C9.62934 9.73216 9.62934 9.73216 9.62815 9.73216C10.1784 9.6304 10.5475 9.1015 10.4481 8.55129C10.3523 7.99754 9.8222 7.62481 9.26609 7.72183L7.92901 7.95729L7.51487 5.60973C7.31845 4.50341 6.2547 3.75795 5.14719 3.95199L4.81233 4.00997C4.81114 4.01116 4.80996 4.01116 4.80878 4.01116L3.80656 4.18746C3.25281 4.28567 2.88008 4.81576 2.9771 5.3719L3.15341 6.36939C3.15459 6.37175 3.15341 6.3753 3.15459 6.37767L3.47525 8.19277C1.26494 9.13228 -0.0909186 11.4951 0.343153 13.9623C0.849589 16.8329 3.58763 18.751 6.45832 18.2446C9.33006 17.7381 11.247 15.0013 10.7418 12.1285C10.7406 12.1226 10.7394 12.119 10.7382 12.1131L11.9262 13.6111C11.9274 13.6123 11.931 13.6147 11.9321 13.617L13.0361 15.0097L15.3245 14.6062L12.8774 11.5272ZM9.37267 8.32539C9.59631 8.28634 9.80693 8.43543 9.84597 8.65672C9.88384 8.87917 9.7383 9.09097 9.51465 9.1312L5.48927 9.83995C5.268 9.87899 5.05501 9.72991 5.01597 9.50862C4.97692 9.28617 5.12601 9.07319 5.34729 9.03414L9.37267 8.32539ZM6.24179 17.0389C4.04214 17.427 1.93591 15.9527 1.54788 13.7496C1.23076 11.9582 2.15134 10.2307 3.69191 9.4401L3.92028 10.7381C4.11552 11.8445 5.18045 12.5911 6.28795 12.3971L6.62282 12.3367C6.6808 12.3261 6.73286 12.3048 6.78966 12.2894C6.84527 12.2894 6.90207 12.2858 6.95768 12.2764L9.38806 11.848C9.43775 12.0101 9.49692 12.1699 9.52768 12.3414C9.91816 14.547 8.44502 16.651 6.2417 17.039L6.24179 17.0389Z" fill="currentColor"/>
  <path d="M0.259277 20.8568L15.7408 17.4939V20.8568H0.259277Z" fill="currentColor"/>
</svg>
