<!-- Icon from noun project -->
<svg width="22" height="14" viewBox="0 0 22 14" fill="none" xmlns="http://www.w3.org/2000/svg">
  <path d="M13.7942 11.1667C13.7942 12.6177 12.6178 13.7941 11.1668 13.7941C9.71575 13.7941 8.53931 12.6177 8.53931 11.1667C8.53931 9.71569 9.71575 8.53925 11.1668 8.53925C12.6178 8.53925 13.7942 9.71569 13.7942 11.1667Z" fill="currentColor"/>
  <path d="M6.01063 11.1666C6.01063 12.4804 4.04004 12.4804 4.04004 11.1666C4.04004 9.8529 6.01063 9.8529 6.01063 11.1666Z" fill="currentColor"/>
  <path d="M1.97059 11.1666C1.97059 12.4804 0 12.4804 0 11.1666C0 9.8529 1.97059 9.8529 1.97059 11.1666Z" fill="currentColor"/>
  <path d="M18.2933 11.1666C18.2933 12.4804 16.3228 12.4804 16.3228 11.1666C16.3228 9.8529 18.2933 9.8529 18.2933 11.1666Z" fill="currentColor"/>
  <path d="M22.3334 11.1666C22.3334 12.4804 20.3628 12.4804 20.3628 11.1666C20.3628 9.8529 22.3334 9.8529 22.3334 11.1666Z" fill="currentColor"/>
  <path d="M12.152 0.985295C12.152 2.29902 10.1814 2.29902 10.1814 0.985295C10.1814 -0.328432 12.152 -0.328432 12.152 0.985295Z" fill="currentColor"/>
  <path d="M12.152 5.02533C12.152 6.33906 10.1814 6.33906 10.1814 5.02533C10.1814 3.71161 12.152 3.71161 12.152 5.02533Z" fill="currentColor"/>
  <path d="M16.4869 6.83173C16.4869 8.14546 14.5164 8.14546 14.5164 6.83173C14.5164 5.518 16.4869 5.518 16.4869 6.83173Z" fill="currentColor"/>
  <path d="M7.78358 6.83173C7.78358 8.14546 5.81299 8.14546 5.81299 6.83173C5.81299 5.518 7.78358 5.518 7.78358 6.83173Z" fill="currentColor"/>
  <path d="M4.96009 3.97467C4.96009 5.2884 2.9895 5.2884 2.9895 3.97467C2.9895 2.66095 4.96009 2.66095 4.96009 3.97467Z" fill="currentColor"/>
  <path d="M19.3439 3.97467C19.3439 5.2884 17.3733 5.2884 17.3733 3.97467C17.3733 2.66095 19.3439 2.66095 19.3439 3.97467Z" fill="currentColor"/>
  <path d="M2.75819 7.25898C2.75819 8.5727 0.787598 8.5727 0.787598 7.25898C0.787598 5.94525 2.75819 5.94525 2.75819 7.25898Z" fill="currentColor"/>
  <path d="M21.5458 7.25898C21.5458 8.5727 19.5752 8.5727 19.5752 7.25898C19.5752 5.94525 21.5458 5.94525 21.5458 7.25898Z" fill="currentColor"/>
  <path d="M8.24427 1.74103C8.24427 3.05476 6.27368 3.05476 6.27368 1.74103C6.27368 0.427306 8.24427 0.427306 8.24427 1.74103Z" fill="currentColor"/>
  <path d="M16.0597 1.74103C16.0597 3.05476 14.0891 3.05476 14.0891 1.74103C14.0891 0.427306 16.0597 0.427306 16.0597 1.74103Z" fill="currentColor"/>
</svg>
