<!-- Icon from noun project -->
<svg width="22" height="22" viewBox="0 0 22 22" fill="none" xmlns="http://www.w3.org/2000/svg">
  <path d="M6.20063 15.1183C6.20063 14.4652 5.64569 13.9103 4.99265 13.9103C4.33957 13.9103 3.78467 14.4653 3.78467 15.1183C3.78467 15.7714 4.3396 16.3263 4.99265 16.3263C5.64572 16.3263 6.20063 15.7714 6.20063 15.1183ZM4.73092 15.1183C4.73092 14.9548 4.86178 14.8566 4.99263 14.8566C5.12349 14.8566 5.25434 14.9875 5.25434 15.1183C5.25434 15.2492 5.12349 15.38 4.99263 15.38C4.86178 15.38 4.73092 15.2492 4.73092 15.1183Z" fill="currentColor" fill-opacity="0.92"/>
  <path d="M5.80837 16.5225C5.6448 16.4898 5.48244 16.5225 5.35157 16.6206C5.25343 16.7188 5.12258 16.7515 4.99295 16.7515C4.86209 16.7515 4.73124 16.6861 4.63432 16.6206C4.50347 16.5225 4.3399 16.4571 4.17753 16.5225C3.1331 16.8169 2.51275 17.8286 2.70782 18.873C2.87139 19.6897 3.55717 20.2446 4.3726 20.2446H5.6133C6.42993 20.2446 7.11573 19.657 7.27808 18.873C7.47436 17.8286 6.82128 16.8169 5.80837 16.5225ZM6.33179 18.7107C6.26636 19.0693 5.97193 19.331 5.6133 19.331H4.40532C4.04669 19.331 3.71955 19.0693 3.6541 18.7107C3.55596 18.2212 3.81767 17.7317 4.24173 17.5027C4.47073 17.6336 4.73122 17.699 4.99295 17.699C5.25467 17.699 5.51516 17.6336 5.74416 17.5027C6.20096 17.7305 6.42872 18.22 6.33179 18.7107Z" fill="currentColor" fill-opacity="0.92"/>
  <path d="M12.2082 15.1183C12.2082 14.4652 11.6533 13.9103 11.0002 13.9103C10.3472 13.9103 9.79224 14.4653 9.79224 15.1183C9.79224 15.7714 10.3472 16.3263 11.0002 16.3263C11.6533 16.3263 12.2082 15.7714 12.2082 15.1183ZM10.7385 15.1183C10.7385 14.9548 10.8693 14.8566 11.0002 14.8566C11.1311 14.8566 11.2619 14.9875 11.2619 15.1183C11.2619 15.2492 11.1311 15.38 11.0002 15.38C10.8693 15.38 10.7385 15.2492 10.7385 15.1183Z" fill="currentColor" fill-opacity="0.92"/>
  <path d="M11.8167 16.5225C11.6531 16.4898 11.4907 16.5225 11.3599 16.6206C11.2617 16.7188 11.1309 16.7515 11.0012 16.7515C10.8704 16.7515 10.7395 16.6861 10.6426 16.6206C10.5118 16.5225 10.3482 16.4571 10.1858 16.5225C9.1414 16.8169 8.52105 17.8286 8.71612 18.873C8.87969 19.6897 9.56547 20.2446 10.3809 20.2446H11.5889C12.4055 20.2446 13.0913 19.657 13.2537 18.873C13.4487 17.8286 12.8284 16.8169 11.8167 16.5225ZM12.3389 18.7107C12.2735 19.0693 11.9475 19.331 11.5877 19.331H10.3797C10.0211 19.331 9.69392 19.0693 9.62847 18.7107C9.53033 18.2212 9.79204 17.7317 10.2161 17.5027C10.4451 17.6336 10.7056 17.699 10.9673 17.699C11.229 17.699 11.4895 17.6336 11.7185 17.5027C12.1753 17.7305 12.437 18.22 12.3389 18.7107Z" fill="currentColor" fill-opacity="0.92"/>
  <path d="M18.2153 15.1183C18.2153 14.4652 17.6603 13.9103 17.0073 13.9103C16.3542 13.9103 15.7993 14.4653 15.7993 15.1183C15.7993 15.7714 16.3543 16.3263 17.0073 16.3263C17.6604 16.3263 18.2153 15.7714 18.2153 15.1183ZM16.7141 15.1183C16.7141 14.9548 16.8449 14.8566 16.9758 14.8566C17.1067 14.8566 17.2375 14.9875 17.2375 15.1183C17.2375 15.2492 17.1067 15.38 16.9758 15.38C16.8449 15.38 16.7141 15.2492 16.7141 15.1183Z" fill="currentColor" fill-opacity="0.92"/>
  <path d="M17.7913 16.5225C17.6277 16.4898 17.4653 16.5225 17.3345 16.6206C17.2363 16.7188 17.1055 16.7515 16.9759 16.7515C16.845 16.7515 16.7141 16.6861 16.6172 16.6206C16.4864 16.5225 16.3228 16.4571 16.1604 16.5225C15.116 16.8169 14.4957 17.8286 14.6907 18.873C14.8543 19.6897 15.5401 20.2446 16.3555 20.2446H17.5635C18.3801 20.2446 19.0659 19.657 19.2283 18.873C19.4561 17.8286 18.8357 16.8169 17.7913 16.5225ZM18.3462 18.7107C18.2808 19.0693 17.9549 19.331 17.595 19.331H16.387C16.0284 19.331 15.7013 19.0693 15.6358 18.7107C15.5377 18.2212 15.7994 17.7317 16.2234 17.5027C16.4524 17.6336 16.7129 17.699 16.9746 17.699C17.2364 17.699 17.4969 17.6336 17.7259 17.5027C18.1827 17.7305 18.4444 18.22 18.3462 18.7107Z" fill="currentColor" fill-opacity="0.92"/>
  <path d="M19.783 1.73206H2.21681C1.9551 1.73206 1.76001 1.92834 1.76001 2.18885V10.5152C1.76001 10.7769 1.95629 10.972 2.21681 10.972H5.58036C5.84207 10.972 6.03715 10.7757 6.03715 10.5152C6.03715 10.2535 5.84087 10.0584 5.58036 10.0584H2.67366V2.6784H19.3264V10.0246H16.3555C16.0938 10.0246 15.8987 10.2209 15.8987 10.4814C15.8987 10.7431 16.095 10.9382 16.3555 10.9382H19.7833C20.045 10.9382 20.2401 10.7419 20.2401 10.4814V2.22173C20.2401 1.96123 20.0438 1.73224 19.7833 1.73224L19.783 1.73206Z" fill="currentColor" fill-opacity="0.92"/>
  <path d="M12.3716 5.12724C12.3716 4.37603 11.7512 3.75568 11 3.75568C10.2488 3.75568 9.62842 4.37603 9.62842 5.12724C9.62842 5.87846 10.2488 6.49881 11 6.49881C11.7512 6.49881 12.3716 5.87846 12.3716 5.12724ZM10.5759 5.12724C10.5759 4.89825 10.7722 4.70317 11 4.70317C11.229 4.70317 11.4241 4.89945 11.4241 5.12724C11.4241 5.35624 11.2278 5.55132 11 5.55132C10.771 5.55253 10.5759 5.35624 10.5759 5.12724Z" fill="currentColor" fill-opacity="0.92"/>
  <path d="M15.1792 10.4824V8.78494C15.1792 8.52323 14.9829 8.32815 14.7224 8.32815H13.6452C13.4162 7.51151 12.7959 6.85844 11.9805 6.63064C11.8169 6.59793 11.6545 6.63064 11.5237 6.72879C11.3928 6.85964 11.1977 6.92507 11.0342 6.92507C10.8706 6.92507 10.6755 6.85964 10.5447 6.72879C10.4138 6.63064 10.2503 6.56522 10.0879 6.63064C9.27125 6.85964 8.6509 7.51272 8.4231 8.32815H7.34596C7.08424 8.32815 6.88916 8.52443 6.88916 8.78494V10.4824C6.88916 10.7442 7.08544 10.9392 7.34596 10.9392H7.57253V12.7676C7.57253 13.0293 7.76881 13.2244 8.02933 13.2244H13.9385C14.2002 13.2244 14.3953 13.0281 14.3953 12.7676V10.9392H14.6897C14.9514 10.972 15.1792 10.743 15.1792 10.4824H15.1792ZM10.1183 7.60847C10.3801 7.77204 10.706 7.87019 11.0004 7.87019C11.3264 7.87019 11.6208 7.77204 11.8825 7.60847C12.2084 7.73933 12.4701 7.99982 12.601 8.32697H9.36833C9.53069 8.00103 9.79241 7.73934 10.1183 7.60847ZM14.2331 10.0257H13.9387C13.677 10.0257 13.4819 10.222 13.4819 10.4825V12.3108H8.5191V10.4825C8.5191 10.2208 8.32282 10.0257 8.0623 10.0257H7.76788V9.24177H14.2332L14.2331 10.0257Z" fill="currentColor" fill-opacity="0.92"/>
</svg>
