<svg width="22" height="22" viewBox="0 0 22 22" fill="none" xmlns="http://www.w3.org/2000/svg">
  <path d="M13.75 16.5H11.458V9.62497H15.583C15.5864 9.62583 15.5899 9.62497 15.5925 9.62497C15.846 9.62497 16.0505 9.41958 16.0505 9.16693C16.0505 9.05006 16.0067 8.9435 15.9353 8.86272L14.6016 6.63962C14.5182 6.50126 14.3696 6.41704 14.208 6.41704H7.79191C7.63034 6.41704 7.48166 6.50126 7.39916 6.63962L6.02416 8.93158C5.93909 9.07337 5.93737 9.24954 6.01815 9.39307C6.09893 9.53573 6.2519 9.6251 6.4169 9.6251H10.5419V16.5001H8.24994C7.99643 16.5001 7.7919 16.7055 7.7919 16.9581V19.2501C7.7919 19.5028 7.99643 19.7081 8.24994 19.7081C8.50345 19.7081 8.70798 19.5028 8.70798 19.2501V17.4171H13.2919V19.2501C13.2919 19.5028 13.4964 19.7081 13.7499 19.7081C14.0034 19.7081 14.208 19.5028 14.208 19.2501V16.9581C14.208 16.7055 14.0034 16.5001 13.7499 16.5001L13.75 16.5ZM8.05152 7.33301H13.9486L14.7736 8.70801H7.22652L8.05152 7.33301ZM6.41699 12.375H1.83307V6.87497H3.20807C3.46158 6.87497 3.66611 6.66958 3.66611 6.41693L3.66697 2.74997C3.66697 2.49732 3.46244 2.29193 3.20893 2.29193H1.37503C1.12153 2.29193 0.916992 2.49732 0.916992 2.74997V19.25C0.916992 19.5026 1.12152 19.708 1.37503 19.708C1.62854 19.708 1.83307 19.5026 1.83307 19.25V15.125H5.95807V19.25C5.95807 19.5026 6.1626 19.708 6.41611 19.708C6.66962 19.708 6.87415 19.5026 6.87415 19.25L6.87501 12.833C6.87501 12.5804 6.67048 12.375 6.41697 12.375H6.41699ZM1.83307 3.20801H2.75003V5.95801H1.83307V3.20801ZM1.83307 14.208V13.2911H5.95807V14.208H1.83307ZM20.625 2.29193H18.792C18.5385 2.29193 18.3339 2.49732 18.3339 2.74997V6.41693C18.3339 6.66958 18.5385 6.87497 18.792 6.87497H20.167V12.375H15.5831C15.3296 12.375 15.125 12.5804 15.125 12.833V19.25C15.125 19.5026 15.3296 19.708 15.5831 19.708C15.8366 19.708 16.0411 19.5026 16.0411 19.25V15.125H20.1661V19.25C20.1661 19.5026 20.3706 19.708 20.6241 19.708C20.8777 19.708 21.0822 19.5026 21.0822 19.25L21.083 2.74997C21.083 2.49732 20.8785 2.29193 20.625 2.29193H20.625ZM19.25 5.95801V3.20801H20.167V5.95801H19.25ZM16.042 14.208V13.2911H20.167V14.208H16.042Z" fill="currentColor" fill-opacity="0.92"/>
</svg>
