<!-- Icon from noun project -->
<svg width="22" height="22" viewBox="-2 0 22 22" fill="none" xmlns="http://www.w3.org/2000/svg">
  <path d="M1.99197 0C2.6365 0 3.15643 0.524216 3.15643 1.16446V2.50078H14.8439V1.16446C14.8439 0.524216 15.3639 0 16.0084 0C16.6486 0 17.1729 0.524216 17.1729 1.16446V21.463C17.1729 21.7595 16.9322 22.0001 16.6357 22.0001H15.3854C15.0889 22.0001 14.8482 21.7594 14.8482 21.463V19.6884H3.15634V21.463C3.15634 21.7595 2.91571 22.0001 2.61923 22.0001H1.36884C1.07235 22.0001 0.831734 21.7594 0.831734 21.463V1.16446C0.827437 0.524216 1.35166 0 1.99188 0L1.99197 0ZM15.4885 21.3512H16.5241V1.16446C16.5241 0.880858 16.292 0.648824 16.0084 0.648824C15.7248 0.648824 15.4928 0.880858 15.4928 1.16446V21.3512H15.4885ZM3.15643 19.0395H14.8439V18.15H3.15643V19.0395ZM3.15643 17.5055H14.8439V15.9371H3.15643V17.5055ZM3.15643 15.2883H14.8439V14.3988H3.15643V15.2883ZM3.15643 13.7543H14.8439V12.186H3.15643V13.7543ZM3.15643 11.5372H14.8439V10.6477H3.15643V11.5372ZM3.15643 10.0032H14.8439V8.4348H3.15643V10.0032ZM3.15643 7.786H14.8439V6.89654H3.15643V7.786ZM3.15643 6.252H14.8439V4.68365H3.15643V6.252ZM3.15643 4.03484H14.8439V3.1497H3.15643V4.03484ZM2.5119 21.3513V1.1645C2.5119 0.880902 2.27986 0.648868 1.99626 0.648868C1.71266 0.648868 1.48062 0.880902 1.48062 1.1645V21.3554H2.51187L2.5119 21.3513Z" fill="currentColor" />
</svg>
