<!-- Icon from noun project -->
<svg width="22" height="22" viewBox="0 0 22 22" fill="none" xmlns="http://www.w3.org/2000/svg">
  <path d="M17.8751 21.0831C16.6281 21.0831 17.417 21.2661 17.417 20.1661C17.417 19.2766 16.1752 17.8466 15.9226 17.5675V17.5683C15.8358 17.4721 15.7129 17.4179 15.5831 17.4179C15.4542 17.4179 15.3313 17.4721 15.2445 17.5683C14.9919 17.8476 13.7501 19.2776 13.7501 20.167C13.7518 20.4901 13.8403 20.8063 14.007 21.0831H12.577C12.7437 20.8064 12.8323 20.4901 12.8331 20.167C12.8331 19.2775 11.5913 17.8475 11.3387 17.5683H11.3395C11.2527 17.4721 11.129 17.4179 11.0001 17.4179C10.8711 17.4179 10.7474 17.4721 10.6606 17.5683C10.4088 17.8476 9.16699 19.2776 9.16699 20.167C9.16785 20.4901 9.25637 20.8063 9.42309 21.0831H7.99309C8.15981 20.8064 8.24834 20.4901 8.25005 20.167C8.25005 19.2775 7.00826 17.8475 6.75559 17.5683C6.6688 17.4721 6.54591 17.4179 6.41699 17.4179C6.28723 17.4179 6.16434 17.4721 6.07753 17.5683C5.82574 17.8476 4.58307 19.2776 4.58307 20.167C4.58307 21.2627 5.36682 21.0839 4.12503 21.0839V21.0831C3.87153 21.0831 3.66699 21.2885 3.66699 21.542C3.66699 21.7946 3.87152 22 4.12503 22H17.875C18.1285 22 18.3331 21.7946 18.3331 21.542C18.3331 21.2885 18.1285 21.0831 17.875 21.0831H17.8751ZM14.667 20.1661C14.667 19.8731 15.0976 19.1899 15.584 18.5849C16.0695 19.1941 16.501 19.8816 16.501 20.1661L16.5001 20.167C16.5001 20.6731 16.0893 21.0831 15.5831 21.0831C15.077 21.0831 14.667 20.6731 14.667 20.167L14.667 20.1661ZM10.0831 20.167C10.0831 19.8739 10.5137 19.1907 11.0001 18.5857C11.4856 19.195 11.917 19.8825 11.917 20.167C11.917 20.6731 11.5063 21.0831 11.0001 21.0831C10.4939 21.0831 10.0831 20.6731 10.0831 20.167ZM5.50007 20.167C5.50007 19.8739 5.93061 19.1907 6.41703 18.5857C6.90257 19.195 7.33399 19.8825 7.33399 20.167H7.33314C7.33314 20.6731 6.92321 21.0831 6.41703 21.0831C5.91086 21.0831 5.50007 20.6731 5.50007 20.167H5.50007Z" fill="currentColor"/>
  <path d="M20.1256 6.41699H1.87415C1.00961 6.42473 0.261109 7.02199 0.062581 7.86417C-0.135934 8.7055 0.265395 9.57518 1.0354 9.96878L2.74986 10.8256V12.375C2.74986 13.469 3.18471 14.5183 3.95814 15.2918C4.73157 16.0652 5.78089 16.5001 6.8749 16.5001H15.1249C16.2189 16.5001 17.2682 16.0652 18.0417 15.2918C18.8151 14.5184 19.2499 13.469 19.2499 12.375V10.8256L20.9644 9.96878C21.7344 9.57518 22.1357 8.7055 21.9372 7.86417C21.7387 7.02199 20.9902 6.42471 20.1257 6.41699H20.1256ZM1.44801 9.16699C1.02776 8.98051 0.798327 8.5216 0.902299 8.07386C1.00628 7.62525 1.41448 7.31417 1.87426 7.33307H2.74997V9.79861L1.44801 9.16699ZM18.333 12.375C18.333 13.2258 17.9953 14.0422 17.3937 14.6437C16.7922 15.2451 15.9758 15.583 15.1251 15.583H6.87508C6.02429 15.583 5.2079 15.2452 4.60644 14.6437C4.00498 14.0421 3.66715 13.2257 3.66715 12.375V7.33307H18.3332L18.333 12.375ZM20.551 9.16699L19.2499 9.79949V7.33307H20.1257C20.5854 7.31417 20.9936 7.62525 21.0976 8.07386C21.2016 8.5216 20.9721 8.9805 20.5519 9.16699H20.551Z" fill="currentColor"/>
  <path d="M10.7068 3.92307C9.76668 4.70682 10.0236 5.50003 10.5418 5.50003C10.663 5.50003 10.7799 5.4519 10.8658 5.36596C10.9518 5.28002 10.9999 5.16315 10.9999 5.04197C10.9999 4.62001 11.9168 4.48768 11.9168 3.51572C11.9168 2.29197 10.3674 2.34182 11.2929 1.57182C12.2193 0.80182 11.9804 3.05176e-05 11.4579 3.05176e-05C11.2053 3.05176e-05 10.9999 0.20542 10.9999 0.458071C10.9999 0.880031 10.0829 1.01236 10.0829 1.98432C10.0829 2.95628 10.9999 3.09378 10.9999 3.51486C10.9999 3.66697 10.9269 3.74001 10.7069 3.92307L10.7068 3.92307Z" fill="currentColor"/>
  <path d="M7.03999 3.92307C6.1007 4.70682 6.35678 5.50003 6.87499 5.50003C6.99616 5.50003 7.11303 5.4519 7.19899 5.36596C7.28494 5.28002 7.33305 5.16315 7.33305 5.04197C7.33305 4.62001 8.25001 4.48768 8.25001 3.51572C8.25001 2.29197 6.70055 2.34182 7.62697 1.57182C8.55251 0.80182 8.31447 3.05176e-05 7.79197 3.05176e-05C7.53846 3.05176e-05 7.33307 0.20542 7.33307 0.458071C7.33307 0.880031 6.41611 1.01236 6.41611 1.98432C6.41611 2.95628 7.33307 3.09378 7.33307 3.51486C7.33307 3.66697 7.26003 3.74001 7.04003 3.92307L7.03999 3.92307Z" fill="currentColor"/>
  <path d="M14.3729 3.92307C13.4336 4.70682 13.6906 5.50003 14.2079 5.50003C14.33 5.50003 14.446 5.4519 14.5319 5.36596C14.6179 5.28003 14.6669 5.16315 14.6669 5.04197C14.6669 4.62001 15.5838 4.48768 15.5838 3.51572C15.583 2.29197 14.0343 2.34182 14.9599 1.57182C15.8855 0.80182 15.6474 3.05176e-05 15.1249 3.05176e-05C14.8714 3.05176e-05 14.6669 0.20542 14.6669 0.458071C14.6669 0.880031 13.7499 1.01236 13.7499 1.98432C13.7499 2.95628 14.6669 3.09378 14.6669 3.51486C14.6669 3.66697 14.593 3.74001 14.373 3.92307L14.3729 3.92307Z" fill="currentColor"/>
</svg>
