<!-- Icon from noun project -->
<svg width="22" height="22" viewBox="0 -3 22 22" fill="none" xmlns="http://www.w3.org/2000/svg">
  <path d="M8.26026 12.6407C8.07034 12.6407 7.91479 12.4869 7.91479 12.2969C7.91479 12.107 8.06691 11.9532 8.25683 11.9532H8.26027C8.45019 11.9532 8.60402 12.107 8.60402 12.2969C8.60402 12.4869 8.45019 12.6407 8.26027 12.6407H8.26026Z" fill="currentColor"/>
  <path d="M9.97877 12.6407C9.78885 12.6407 9.6333 12.4869 9.6333 12.2969C9.6333 12.107 9.78541 11.9532 9.97533 11.9532H9.97877C10.1687 11.9532 10.3225 12.107 10.3225 12.2969C10.3225 12.4869 10.1687 12.6407 9.97877 12.6407H9.97877Z" fill="currentColor"/>
  <path d="M6.54127 12.6407C6.35135 12.6407 6.1958 12.4869 6.1958 12.2969C6.1958 12.107 6.34791 11.9532 6.53784 11.9532H6.54127C6.73119 11.9532 6.88502 12.107 6.88502 12.2969C6.88502 12.4869 6.73119 12.6407 6.54127 12.6407H6.54127Z" fill="currentColor"/>
  <path d="M20.2812 14.7032H1.71875C0.766568 14.7032 0 13.5748 0 12.6407V7.48431C0 6.53642 0.770858 5.76556 1.71875 5.76556C1.90867 5.76556 2.0625 5.91939 2.0625 6.10931C2.0625 6.29924 1.90867 6.45306 1.71875 6.45306C1.14985 6.45306 0.6875 6.91542 0.6875 7.48431V12.6407C0.6875 13.2405 1.18765 14.0157 1.71875 14.0157H20.2812C20.8501 14.0157 21.3125 13.5533 21.3125 12.9844V7.48443C21.3125 6.91553 20.8501 6.45317 20.2812 6.45317C20.0913 6.45317 19.9375 6.29935 19.9375 6.10942C19.9375 5.9195 20.0913 5.76567 20.2812 5.76567C21.2291 5.76567 22 6.53653 22 7.48443V12.9844C22 13.9323 21.2291 14.7032 20.2812 14.7032Z" fill="currentColor"/>
  <path d="M8.24987 11.2657C6.16501 11.2657 4.46851 9.56926 4.46851 7.4843C4.46851 5.39934 6.1649 3.70294 8.24987 3.70294C10.3348 3.70294 12.0312 5.39934 12.0312 7.4843C12.0312 9.56926 10.3348 11.2657 8.24987 11.2657ZM8.24987 4.39066C6.54401 4.39066 5.15623 5.77855 5.15623 7.4843C5.15623 9.19005 6.54412 10.5779 8.24987 10.5779C9.95561 10.5779 11.3435 9.19005 11.3435 7.4843C11.3435 5.77855 9.95561 4.39066 8.24987 4.39066Z" fill="currentColor"/>
  <path d="M8.24987 9.89066C6.923 9.89066 5.84351 8.8113 5.84351 7.4843C5.84351 6.15731 6.92287 5.07794 8.24987 5.07794C9.57686 5.07794 10.6562 6.15731 10.6562 7.4843C10.6562 8.8113 9.57686 9.89066 8.24987 9.89066ZM8.24987 5.76566C7.30197 5.76566 6.53112 6.53652 6.53112 7.48441C6.53112 8.4323 7.30197 9.20316 8.24987 9.20316C9.19776 9.20316 9.96862 8.4323 9.96862 7.48441C9.96862 6.53652 9.19776 5.76566 8.24987 5.76566Z" fill="currentColor"/>
  <path d="M2.57811 9.89066C2.10375 9.89066 1.71875 9.50566 1.71875 9.0313C1.71875 8.55694 2.10375 8.17194 2.57811 8.17194C3.05248 8.17194 3.43748 8.55694 3.43748 9.0313C3.43748 9.50566 3.05248 9.89066 2.57811 9.89066ZM2.57811 8.85941C2.48358 8.85941 2.40624 8.93676 2.40624 9.03129C2.40624 9.12582 2.48358 9.20316 2.57811 9.20316C2.67265 9.20316 2.74999 9.12582 2.74999 9.03129C2.74999 8.93676 2.67265 8.85941 2.57811 8.85941Z" fill="currentColor"/>
  <path d="M2.57811 12.6407C2.10375 12.6407 1.71875 12.2557 1.71875 11.7813C1.71875 11.3069 2.10375 10.9219 2.57811 10.9219C3.05248 10.9219 3.43748 11.3069 3.43748 11.7813C3.43748 12.2557 3.05248 12.6407 2.57811 12.6407ZM2.57811 11.6094C2.48358 11.6094 2.40624 11.6868 2.40624 11.7813C2.40624 11.8758 2.48358 11.9532 2.57811 11.9532C2.67265 11.9532 2.74999 11.8758 2.74999 11.7813C2.74999 11.6868 2.67265 11.6094 2.57811 11.6094Z" fill="currentColor"/>
  <path d="M13.4062 7.48431C13.2163 7.48431 13.0625 7.33049 13.0625 7.14056V6.10931C13.0625 5.91939 13.2163 5.76556 13.4062 5.76556C13.5962 5.76556 13.75 5.91939 13.75 6.10931V7.14056C13.75 7.33049 13.5962 7.48431 13.4062 7.48431Z" fill="currentColor"/>
  <path d="M20.2812 7.48431H13.4062C13.2163 7.48431 13.0625 7.33049 13.0625 7.14056C13.0625 6.95064 13.2163 6.79681 13.4062 6.79681H20.2812C20.4712 6.79681 20.625 6.95064 20.625 7.14056C20.625 7.33049 20.4712 7.48431 20.2812 7.48431Z" fill="currentColor"/>
  <path d="M20.2812 7.48431C20.0913 7.48431 19.9375 7.33049 19.9375 7.14056V6.10931C19.9375 5.91939 20.0913 5.76556 20.2812 5.76556C20.4712 5.76556 20.625 5.91939 20.625 6.10931V7.14056C20.625 7.33049 20.4712 7.48431 20.2812 7.48431Z" fill="currentColor"/>
  <path d="M21.6562 9.89069H13.4062C13.2163 9.89069 13.0625 9.73686 13.0625 9.54694C13.0625 9.35701 13.2163 9.20319 13.4062 9.20319H21.6562C21.8462 9.20319 22 9.35701 22 9.54694C22 9.73686 21.8462 9.89069 21.6562 9.89069Z" fill="currentColor"/>
  <path d="M21.6562 11.2657H13.4062C13.2163 11.2657 13.0625 11.1119 13.0625 10.9219C13.0625 10.732 13.2163 10.5782 13.4062 10.5782H21.6562C21.8462 10.5782 22 10.732 22 10.9219C22 11.1119 21.8462 11.2657 21.6562 11.2657Z" fill="currentColor"/>
  <path d="M21.6562 12.6407H13.4062C13.2163 12.6407 13.0625 12.4869 13.0625 12.2969C13.0625 12.107 13.2163 11.9532 13.4062 11.9532H21.6562C21.8462 11.9532 22 12.107 22 12.2969C22 12.4869 21.8462 12.6407 21.6562 12.6407Z" fill="currentColor"/>
  <path d="M2.75 15.7343C2.56008 15.7343 2.40625 15.5805 2.40625 15.3906V14.3593C2.40625 14.1694 2.56008 14.0156 2.75 14.0156C2.93992 14.0156 3.09375 14.1694 3.09375 14.3593V15.3906C3.09375 15.5805 2.93992 15.7343 2.75 15.7343Z" fill="currentColor"/>
  <path d="M6.53136 15.7343H2.75C2.56008 15.7343 2.40625 15.5805 2.40625 15.3906C2.40625 15.2006 2.56008 15.0468 2.75 15.0468H6.53136C6.72128 15.0468 6.87511 15.2006 6.87511 15.3906C6.87511 15.5805 6.72214 15.7343 6.53136 15.7343Z" fill="currentColor"/>
  <path d="M6.53125 15.7343C6.34133 15.7343 6.1875 15.5805 6.1875 15.3906V14.3593C6.1875 14.1694 6.34133 14.0156 6.53125 14.0156C6.72117 14.0156 6.875 14.1694 6.875 14.3593V15.3906C6.875 15.5805 6.72203 15.7343 6.53125 15.7343Z" fill="currentColor"/>
  <path d="M15.4685 15.7343C15.2786 15.7343 15.1248 15.5805 15.1248 15.3906V14.3593C15.1248 14.1694 15.2786 14.0156 15.4685 14.0156C15.6584 14.0156 15.8123 14.1694 15.8123 14.3593V15.3906C15.8123 15.5805 15.6584 15.7343 15.4685 15.7343Z" fill="currentColor"/>
  <path d="M19.2499 15.7343H15.4685C15.2786 15.7343 15.1248 15.5805 15.1248 15.3906C15.1248 15.2006 15.2786 15.0468 15.4685 15.0468H19.2499C19.4398 15.0468 19.5936 15.2006 19.5936 15.3906C19.5936 15.5805 19.4407 15.7343 19.2499 15.7343Z" fill="currentColor"/>
  <path d="M19.25 15.7343C19.0601 15.7343 18.9062 15.5805 18.9062 15.3906V14.3593C18.9062 14.1694 19.0601 14.0156 19.25 14.0156C19.4399 14.0156 19.5938 14.1694 19.5938 14.3593V15.3906C19.5938 15.5805 19.4408 15.7343 19.25 15.7343Z" fill="currentColor"/>
  <path d="M5.09861 6.45319H1.71875C1.52883 6.45319 1.375 6.29936 1.375 6.10944C1.375 5.91951 1.52883 5.76569 1.71875 5.76569H5.09861C5.28853 5.76569 5.44236 5.91951 5.44236 6.10944C5.44236 6.29936 5.28853 6.45319 5.09861 6.45319Z" fill="currentColor"/>
  <path d="M20.2812 6.45319H11.4014C11.2114 6.45319 11.0576 6.29936 11.0576 6.10944C11.0576 5.91951 11.2114 5.76569 11.4014 5.76569H20.2812C20.4711 5.76569 20.625 5.91951 20.625 6.10944C20.625 6.29936 20.4711 6.45319 20.2812 6.45319Z" fill="currentColor"/>
  <path d="M8.25 2.67181C8.06008 2.67181 7.90625 2.51799 7.90625 2.32806V0.609314C7.90625 0.419392 8.06008 0.265564 8.25 0.265564C8.43992 0.265564 8.59375 0.419392 8.59375 0.609314V2.32806C8.59375 2.51799 8.43992 2.67181 8.25 2.67181Z" fill="currentColor"/>
  <path d="M5.6718 3.36281C5.55321 3.36281 5.43719 3.30093 5.37359 3.19093L4.51423 1.7025C4.4197 1.5375 4.47556 1.32782 4.6397 1.23328C4.80384 1.13875 5.01438 1.19461 5.10891 1.35875L5.96828 2.84718C6.06281 3.01218 6.00695 3.22187 5.84281 3.3164C5.78953 3.3482 5.73023 3.36281 5.67179 3.36281H5.6718Z" fill="currentColor"/>
  <path d="M3.78448 5.24999C3.72604 5.24999 3.66674 5.23538 3.6126 5.20359L2.12417 4.34422C1.95917 4.24969 1.90331 4.04001 1.99784 3.87501C2.09237 3.71001 2.30377 3.65415 2.46706 3.74954L3.95549 4.6089C4.12049 4.70343 4.17635 4.91398 4.08096 5.07812C4.01822 5.18812 3.90307 5.24999 3.78446 5.24999H3.78448Z" fill="currentColor"/>
  <path d="M12.7153 5.24997C12.5967 5.24997 12.4807 5.1881 12.4171 5.0781C12.3225 4.9131 12.3784 4.70342 12.5425 4.60888L14.0301 3.74952C14.1942 3.65499 14.4048 3.71085 14.4993 3.87499C14.5939 4.03999 14.538 4.24967 14.3738 4.3442L12.8863 5.20357C12.833 5.23536 12.7737 5.24997 12.7153 5.24997H12.7153Z" fill="currentColor"/>
  <path d="M10.828 3.36282C10.7696 3.36282 10.7103 3.34821 10.6561 3.31642C10.4911 3.22188 10.4353 3.01134 10.5307 2.8472L11.3892 1.35877C11.4837 1.19463 11.6951 1.13791 11.8584 1.2333C12.0234 1.32783 12.0792 1.53837 11.9839 1.70252L11.1254 3.19095C11.0618 3.30095 10.9466 3.36282 10.828 3.36282H10.828Z" fill="currentColor"/>
</svg>
