<!-- Icon from noun project -->
<svg width="22" height="22" viewBox="0 0 22 22" fill="none" xmlns="http://www.w3.org/2000/svg">
  <path d="M5.27996 18.04H3.95996V6.48733C3.95825 5.46468 4.57442 4.54257 5.51972 4.15071C6.46418 3.7597 7.55215 3.97712 8.27412 4.70157L9.4867 5.91414L8.55427 6.84657L7.3417 5.63399C6.99623 5.28939 6.47716 5.18625 6.02599 5.37274C5.57481 5.55924 5.28005 5.99924 5.28005 6.48735L5.27996 18.04Z" fill="currentColor"/>
  <path d="M9.89999 12.32C9.72468 12.32 9.5571 12.2503 9.43335 12.1266L8.55335 11.2466C7.86413 10.5608 7.47742 9.62752 7.47999 8.65477V8.50266C7.48085 7.53156 7.86671 6.60001 8.55421 5.9126C9.24171 5.22596 10.1733 4.8401 11.1451 4.8401H11.2973C12.2692 4.83752 13.2025 5.22424 13.8882 5.91346L14.7682 6.79346C15.026 7.05128 15.026 7.46892 14.7682 7.72674L10.3682 12.1267C10.2444 12.2505 10.076 12.321 9.89984 12.3201L9.89999 12.32ZM11.1452 6.15995C9.85016 6.15995 8.80004 7.2101 8.80004 8.50515V8.65726C8.79832 9.27944 9.04496 9.87672 9.48668 10.3159L9.90004 10.7275L13.3677 7.25987L12.9543 6.84651H12.9535C12.5143 6.40479 11.9171 6.15815 11.2949 6.15987L11.1452 6.15995Z" fill="currentColor"/>
  <path d="M14.7399 14.74C14.7399 15.62 13.4199 15.62 13.4199 14.74C13.4199 13.86 14.7399 13.86 14.7399 14.74Z" fill="currentColor"/>
  <path d="M18.04 11.44C18.04 12.32 16.72 12.32 16.72 11.44C16.72 10.56 18.04 10.56 18.04 11.44Z" fill="currentColor"/>
  <path d="M14.52 11.22C14.52 12.1 13.2 12.1 13.2 11.22C13.2 10.34 14.52 10.34 14.52 11.22Z" fill="currentColor"/>
</svg>
