<!-- Icon from noun project -->
<svg width="22" height="22" viewBox="0 0 22 22" fill="none" xmlns="http://www.w3.org/2000/svg">
  <path d="M17.32 3.69007L16.22 4.8889L13.0738 8.50855V10.0486H19.8569V8.24988L16.9564 8.26449C16.543 8.26449 16.2104 8.2748 15.9586 8.29542C16.2027 8.05136 16.5774 7.64057 17.081 7.06567L20.1669 3.52763V1.83295H12.833V3.74334H16.1975C16.3427 3.74334 16.7165 3.72615 17.3198 3.69006L17.32 3.69007Z" fill="currentColor"/>
  <path d="M9.59748 11.6952L8.76905 12.595L6.41703 15.3098V16.4648H11.508V15.1121L9.33212 15.1233C9.02275 15.1233 8.77352 15.131 8.58447 15.1473C8.76666 14.9652 9.04682 14.6601 9.42579 14.2304L11.7332 11.5741V10.3031H6.23315V11.7331H8.75809C8.86552 11.7331 9.14567 11.7202 9.5977 11.6953L9.59748 11.6952Z" fill="currentColor"/>
  <path d="M2.93303 18.1175C2.97944 18.1175 3.10147 18.1114 3.29999 18.0994L2.93303 18.4896L1.9121 19.6669V20.1671H4.1121V19.5801H3.16935C3.03529 19.5801 2.927 19.5835 2.8445 19.5896C2.92271 19.5113 3.04474 19.3781 3.21146 19.1899L4.21693 18.0478V17.4978H1.83301V18.1192L2.93303 18.1175Z" fill="currentColor"/>
</svg>
