<!-- Icon from noun project -->
<svg width="22" height="22" version="1.1" viewBox="0 0 100 100" xmlns="http://www.w3.org/2000/svg">
  <g fill="currentColor">
    <path d="m50 84.375c-8.9062 0-17.344-3.4375-23.75-9.5312-6.875-6.5625-10.625-15.312-10.625-24.844 0-18.906 15.469-34.375 34.375-34.375s34.375 15.469 34.375 34.375c0 9.5312-3.75 18.281-10.625 24.844-6.4062 6.0938-14.844 9.5312-23.75 9.5312zm0-65.625c-17.188 0-31.25 14.062-31.25 31.25 0 8.5938 3.4375 16.719 9.6875 22.656 5.7812 5.4688 13.438 8.5938 21.562 8.5938s15.781-3.125 21.562-8.5938c6.25-5.9375 9.6875-13.906 9.6875-22.656 0-17.188-14.062-31.25-31.25-31.25z"/>
    <path d="m50 53.125c-7.8125 0-14.062-6.25-14.062-14.062s6.25-14.062 14.062-14.062 14.062 6.25 14.062 14.062-6.25 14.062-14.062 14.062zm0-25c-6.0938 0-10.938 4.8438-10.938 10.938s4.8438 10.938 10.938 10.938 10.938-4.8438 10.938-10.938-4.8438-10.938-10.938-10.938z"/>
    <path d="m50 84.375c-8.9062 0-17.344-3.4375-23.75-9.5312l-0.625-0.625 0.15625-0.9375c2.9688-10.938 12.812-18.594 24.219-18.594s21.25 7.6562 24.219 18.594l0.15625 0.9375-0.625 0.625c-6.4062 6.0938-14.844 9.5312-23.75 9.5312zm-20.938-11.094c5.7812 5.1562 13.125 7.9688 20.938 7.9688s15.156-2.8125 20.938-7.9688c-2.8125-9.2188-11.25-15.469-20.938-15.469s-18.125 6.25-20.938 15.469z"/>
  </g>
</svg>
