<svg width="18" height="16" viewBox="0 0 18 16" fill="none" xmlns="http://www.w3.org/2000/svg">
  <path d="M10.9569 12.7628C10.8068 12.6598 9.30798 11.631 8.93707 11.3942C8.43771 11.0756 7.94401 11.2899 7.75791 11.4445C7.3551 11.7686 6.73928 12.2556 6.63746 12.3222C6.63045 12.3244 6.61558 12.3252 6.60241 12.3247C6.34189 12.1773 5.17591 11.4936 4.63318 10.7565C4.10439 10.0407 3.83088 9.47443 3.64953 9.09977C3.60795 9.0132 3.56999 8.93621 3.53566 8.86881C3.489 8.77773 3.52617 8.70854 3.56528 8.66832C3.68882 8.58726 4.16893 8.26753 4.43225 8.0089C4.83287 7.61577 4.75021 7.14569 4.73888 7.09225C4.69766 6.89458 4.33074 5.14988 4.21836 4.80716C4.07817 4.37835 3.53054 4.14148 2.59144 4.10395C1.93725 4.07751 1.15664 4.85978 0.917275 5.11855C0.332094 5.67114 0.147569 6.33311 0.185679 7.72968C0.22594 9.18535 1.31568 10.8576 2.48838 12.448C3.72999 14.1329 6.39422 15.4985 7.68259 15.6983C8.97518 15.8993 9.99307 15.2389 10.3765 14.9897L10.4051 14.9713C10.9065 14.6481 11.1977 13.7322 11.2429 13.5232C11.3309 13.1153 11.1152 12.8607 10.957 12.7628L10.9569 12.7628Z" fill="currentColor"/>
  <path d="M7.39282 0.25V7.96429H17.9994L18 0.25H7.39282ZM12.6964 4.23551L9.70155 1.53551H15.7222L12.6964 4.23551ZM10.4503 3.91429L8.64108 5.77837V2.30694L10.4503 3.91429ZM11.3862 4.75021L12.291 5.55357C12.4156 5.65 12.5408 5.71449 12.6964 5.71449C12.8526 5.71449 12.9772 5.65001 13.1018 5.55357L13.9131 4.81408L15.7222 6.67816L9.51437 6.67876L11.3862 4.75021ZM14.8799 3.97878L16.7517 2.30755V5.9399L14.8799 3.97878Z" fill="currentColor" />
</svg>
