<!--
  From Noun project
  Attribution: Delete by zakiaalfitry
 -->
<svg width="22" height="22" version="1.1" viewBox="0 0 100 100" xmlns="http://www.w3.org/2000/svg">
  <path fill="currentColor" d="m34.375 81.25v-40.625c0-1.7266 1.3984-3.125 3.125-3.125s3.125 1.3984 3.125 3.125v40.625c0 1.7266-1.3984 3.125-3.125 3.125s-3.125-1.3984-3.125-3.125zm15.625 3.125c0.82812 0 1.625-0.32812 2.2109-0.91406 0.58594-0.58594 0.91406-1.3828 0.91406-2.2109v-40.625c0-1.7266-1.3984-3.125-3.125-3.125s-3.125 1.3984-3.125 3.125v40.625c0 0.82812 0.32812 1.625 0.91406 2.2109 0.58594 0.58594 1.3828 0.91406 2.2109 0.91406zm12.5 0c0.82812 0 1.625-0.32812 2.2109-0.91406 0.58594-0.58594 0.91406-1.3828 0.91406-2.2109v-40.625c0-1.7266-1.3984-3.125-3.125-3.125s-3.125 1.3984-3.125 3.125v40.625c0 0.82812 0.32812 1.625 0.91406 2.2109 0.58594 0.58594 1.3828 0.91406 2.2109 0.91406zm21.875-65.625v9.375c0 0.82812-0.32812 1.625-0.91406 2.2109-0.58594 0.58594-1.3828 0.91406-2.2109 0.91406h-3.125v52.781c0 7.0938-5.75 12.844-12.844 12.844h-30.562c-7.0938 0-12.844-5.75-12.844-12.844v-52.781h-3.125c-1.7266 0-3.125-1.3984-3.125-3.125v-9.375c0-1.7266 1.3984-3.125 3.125-3.125h15.625v-3.6875c0-4.8672 3.9453-8.8125 8.8125-8.8125h13.625c2.3359 0 4.5781 0.92969 6.2305 2.582 1.6523 1.6523 2.582 3.8945 2.582 6.2305v3.6875h15.625c0.82812 0 1.625 0.32812 2.2109 0.91406 0.58594 0.58594 0.91406 1.3828 0.91406 2.2109zm-43.75-3.125h18.75v-3.6875c0-0.67969-0.26953-1.332-0.75-1.8125s-1.1328-0.75-1.8125-0.75h-13.625c-1.4141 0-2.5625 1.1484-2.5625 2.5625zm31.25 15.625h-43.75v52.781c0.015625 3.6328 2.9609 6.5781 6.5938 6.5938h30.562c3.6328-0.015625 6.5781-2.9609 6.5938-6.5938zm6.25-9.375h-56.25v3.125h56.25z"/>
</svg>
