<svg width="100pt" height="100pt" version="1.1" viewBox="0 0 100 100" xmlns="http://www.w3.org/2000/svg">
  <path class="fill-current" d="m18.133 29.789-7.793 4.9805c-0.69141 0.44531-1.293 0.96094-1.7969 1.5391l9.5898 7.8828zm31.867 6.1484c1.1602 0 2.2109-0.47266 2.9688-1.2305 0.75781-0.75781 1.2305-1.8086 1.2305-2.9688 0-1.1602-0.47266-2.2109-1.2305-2.9688-0.75781-0.76172-1.8086-1.2305-2.9688-1.2305s-2.2109 0.46875-2.9688 1.2305c-0.75781 0.75781-1.2305 1.8086-1.2305 2.9688 0 1.1602 0.47266 2.2109 1.2305 2.9688 0.75781 0.75781 1.8086 1.2305 2.9688 1.2305zm6.2148 2.0156c-1.5938 1.5938-3.7891 2.5781-6.2148 2.5781s-4.625-0.98438-6.2148-2.5781c-1.5898-1.5898-2.5742-3.7891-2.5742-6.2148s0.98437-4.625 2.5742-6.2148c1.5898-1.5898 3.7891-2.5742 6.2148-2.5742 1.8086 0 3.4883 0.54688 4.8867 1.4805 0.41406-0.40625 0.98438-0.65625 1.6094-0.65625 1.2695 0 2.2969 1.0273 2.2969 2.2969v5.6719c0 0.76172 0.31641 1.457 0.82031 1.9648l-0.007812 0.007813c0.50781 0.5 1.2031 0.8125 1.9688 0.8125 0.76172 0 1.457-0.3125 1.9648-0.82031 0.50781-0.50781 0.82031-1.1992 0.82031-1.9648 0-3.9648-1.6094-7.5586-4.207-10.156-2.5977-2.5977-6.1875-4.207-10.156-4.207-3.9648 0-7.5586 1.6094-10.156 4.207-2.5977 2.5977-4.207 6.1875-4.207 10.156 0 3.9648 1.6094 7.5586 4.207 10.156 2.5977 2.5977 6.1875 4.207 10.156 4.207 3.9648 0 7.5586-1.6055 10.156-4.207 0.84375-0.84375 1.5781-1.7891 2.1914-2.8164-0.25391 0.027344-0.51172 0.039063-0.76953 0.039063-1.8242 0-3.5-0.67188-4.793-1.7812-0.17969 0.21484-0.36719 0.42578-0.56641 0.625zm7.1836 7.1836c-3.4297 3.4297-8.168 5.5508-13.402 5.5508-5.2305 0-9.9727-2.1211-13.402-5.5508-3.4297-3.4297-5.5547-8.168-5.5547-13.402 0-5.2305 2.1211-9.9727 5.5547-13.402 3.4297-3.4297 8.168-5.5508 13.402-5.5508 5.2305 0 9.9727 2.1211 13.402 5.5508 3.4297 3.4297 5.5547 8.168 5.5547 13.402 0 5.2305-2.1211 9.9727-5.5547 13.402zm-40.676 2.8281 18.672 15.352 0.65625-0.53906c2.3359-1.9219 5.1406-2.8789 7.9453-2.8789 2.8047 0 5.6133 0.96094 7.9453 2.8789l0.65625 0.53906 18.672-15.352v-34.984c0-2.0352-0.83203-3.8789-2.168-5.2188-1.3398-1.3398-3.1836-2.168-5.2188-2.168h-39.777c-2.0312 0-3.8789 0.83203-5.2188 2.168-1.3398 1.3398-2.168 3.1836-2.168 5.2188v34.984zm59.145-3.7773 9.5898-7.8828c-0.50391-0.57813-1.1055-1.0938-1.7969-1.5391l-7.793-4.9805zm0-19.832 10.25 6.5508c1.8438 1.1797 3.293 2.7227 4.2773 4.5195 0.046875 0.085938 0.089844 0.17188 0.13672 0.25391l0.003906 0.007812 0.027344 0.050781c0.88281 1.7266 1.3477 3.6602 1.3477 5.7148v45.016c0 3.4492-1.4062 6.582-3.6758 8.8516-2.2695 2.2695-5.3984 3.6758-8.8516 3.6758h-70.766c-3.4492 0-6.582-1.4062-8.8516-3.6758-2.2695-2.2695-3.6758-5.3984-3.6758-8.8516v-45.016c0-2.0508 0.46484-3.9883 1.3477-5.7148l0.027344-0.050781 0.003906-0.007812c0.046875-0.085938 0.089844-0.17188 0.13672-0.25391 0.98828-1.8008 2.4297-3.3438 4.2773-4.5195l10.25-6.5508v-11.375c0-3.3008 1.3438-6.293 3.5156-8.4648 2.168-2.168 5.168-3.5156 8.4648-3.5156h39.777c3.3008 0 6.293 1.3438 8.4648 3.5156 2.168 2.168 3.5156 5.1641 3.5156 8.4648v11.375zm-62.738 26.574c-0.10938-0.074219-0.21094-0.16016-0.30469-0.25l-12.109-9.957c-0.019532 0.23828-0.03125 0.48438-0.03125 0.73047v45.016c0 1.5898 0.47266 3.0742 1.2852 4.3203l29.82-24.512-18.664-15.344zm62.043-0.25c-0.09375 0.09375-0.19531 0.17578-0.30469 0.25l-18.664 15.344 29.82 24.512c0.8125-1.2461 1.2852-2.7266 1.2852-4.3203v-45.016c0-0.24609-0.011719-0.48828-0.03125-0.73047l-12.109 9.957zm-38.293 17.336-0.066406 0.054687-31.27 25.707c0.94531 0.39844 1.9844 0.62109 3.0703 0.62109h70.766c1.0898 0 2.1289-0.22266 3.0703-0.62109l-31.27-25.707-0.066407-0.054687-2.0742-1.707c-1.4805-1.2148-3.2578-1.8203-5.043-1.8203-1.7812 0-3.5625 0.60938-5.043 1.8203z"/>
</svg>
