<!--
 From noun project
 Email by Fajriah Robiatul Adawiah
 -->
<svg width="22" height="22" version="1.1" viewBox="0 0 100 100" xmlns="http://www.w3.org/2000/svg">
  <path class="fill-current" d="m84.375 18.75h-68.75c-5.168 0-9.375 4.207-9.375 9.375v43.75c0 5.168 4.207 9.375 9.375 9.375h68.75c5.168 0 9.375-4.207 9.375-9.375v-43.75c0-5.168-4.207-9.375-9.375-9.375zm-2.0859 6.25-30.414 22.812c-1.1055 0.83203-2.6484 0.82812-3.7539 0l-30.414-22.812h64.586zm2.0859 50h-68.75c-1.7227 0-3.125-1.4023-3.125-3.125v-42.969l31.875 23.91c1.6562 1.2422 3.6406 1.8633 5.625 1.8633s3.9688-0.62109 5.625-1.8633l31.875-23.906v42.969c0 1.7227-1.4023 3.125-3.125 3.125z"/>
</svg>
