<?xml version="1.0" encoding="UTF-8"?>
<!--
  Empty Box by Andi Nur Abdillah
 -->
<svg fill="currentColor" width="100pt" height="100pt" version="1.1" viewBox="0 0 100 100" xmlns="http://www.w3.org/2000/svg">
  <path d="m88.719 47.469-6.25-7.8125c-0.17188-0.20312-0.39062-0.375-0.64062-0.46875l-22.828-9.125c0.82812-0.23438 1.3125-1.0781 1.0938-1.8906-0.21875-0.82812-1.0781-1.3281-1.9062-1.1094-0.57812 0.15625-1.1562 0.34375-1.7188 0.57812-0.46875 0.1875-0.76562 0.60938-0.89062 1.0625l-4.9844-2c-0.375-0.15625-0.78125-0.15625-1.1562 0l-31.25 12.5c-0.25 0.09375-0.46875 0.26562-0.64062 0.46875l-6.25 7.8125c-0.3125 0.39062-0.42188 0.89062-0.29688 1.375s0.46875 0.875 0.9375 1.0469l5.2656 2.1094v29.25c0 0.64062 0.39062 1.2188 0.98438 1.4531l31.25 12.5h0.0625c0.17188 0.0625 0.34375 0.09375 0.53125 0.09375s0.35938-0.046875 0.53125-0.09375h0.0625l31.25-12.5c0.59375-0.23438 0.98438-0.8125 0.98438-1.4531v-29.25l5.2656-2.1094c0.45312-0.1875 0.8125-0.57812 0.9375-1.0469 0.125-0.48438 0.015625-0.98438-0.29688-1.375zm-38.719-17.656 27.047 10.812-27.047 10.812-27.047-10.812zm-30.75 12.703 28.219 11.281-4.2031 5.2656-28.219-11.281zm1.0625 10.734 22.859 9.1406c0.64062 0.25 1.375 0.0625 1.7969-0.46875l3.4688-4.3281v33.859l-28.125-11.25zm59.375 26.953-28.125 11.25v-33.859l3.4688 4.3281c0.29688 0.375 0.75 0.59375 1.2188 0.59375 0.1875 0 0.39062-0.03125 0.57812-0.10938l22.859-9.1406v26.953zm-22.938-21.141-4.2031-5.2656 28.219-11.281 4.2031 5.2656zm-28.078-38.875 3.8438 4.4375c1.0938 1.2656 2.5469 1.9375 4.0469 1.9375 0.59375 0 1.2031-0.10938 1.7969-0.32812 2.3281-0.875 3.8438-3.2031 3.8438-5.9375v-1.2031c0.95312-0.85938 1.5625-2.0938 1.5625-3.4688s-0.60938-2.6094-1.5625-3.4688v-1.2031c0-2.7344-1.5-5.0781-3.8438-5.9375-2.0781-0.78125-4.3125-0.15625-5.8438 1.6094l-3.8438 4.4375c-2.0938 0.46875-3.6719 2.3281-3.6719 4.5625s1.5781 4.0938 3.6719 4.5625zm11.953-4.5625c0 0.85938-0.70312 1.5625-1.5625 1.5625h-9.375c-0.85938 0-1.5625-0.70312-1.5625-1.5625s0.70312-1.5625 1.5625-1.5625h9.375c0.85938 0 1.5625 0.70312 1.5625 1.5625zm-3.375 7.6875c-0.5 0.1875-1.4688 0.34375-2.3906-0.71875l-1.9688-2.2812h6.1562c0 1.7188-0.96875 2.6875-1.8125 3zm-2.3906-14.641c0.90625-1.0625 1.8906-0.90625 2.3906-0.71875 0.82812 0.3125 1.7969 1.2812 1.8125 3h-6.1562l1.9688-2.2812zm13.375 6.9688c0-0.85938 0.70312-1.5625 1.5625-1.5625h0.78125c0.85938 0 1.5625 0.70312 1.5625 1.5625s-0.70312 1.5625-1.5625 1.5625h-0.78125c-0.85938 0-1.5625-0.70312-1.5625-1.5625zm15.203 12.688c-0.125-0.85938 0.45312-1.6406 1.3125-1.7812 0.39062-0.0625 0.78125-0.17188 1.1562-0.32812 0.79688-0.34375 1.7188 0.015625 2.0625 0.8125s-0.015625 1.7188-0.8125 2.0625c-0.625 0.26562-1.2656 0.45312-1.9375 0.5625-0.078125 0-0.15625 0.015625-0.23438 0.015625-0.76562 0-1.4219-0.5625-1.5469-1.3281zm0.09375-12.859c0.14062-0.85938 0.9375-1.4375 1.7969-1.2812 0.67188 0.10938 1.3125 0.29688 1.9219 0.57812 0.78125 0.35938 1.1406 1.2812 0.78125 2.0625-0.26562 0.57812-0.82812 0.92188-1.4219 0.92188-0.21875 0-0.4375-0.046875-0.64062-0.14062-0.35938-0.15625-0.75-0.28125-1.1562-0.34375-0.84375-0.14062-1.4219-0.9375-1.2812-1.7969zm5.1719 7.0781c0.03125-0.20312 0.046875-0.42188 0.046875-0.64062 0-0.1875 0-0.39062-0.03125-0.5625-0.10938-0.85938 0.5-1.6406 1.3594-1.7344 0.875-0.125 1.6406 0.5 1.7344 1.3594 0.03125 0.3125 0.0625 0.625 0.0625 0.95312 0 0.35938-0.03125 0.70312-0.0625 1.0469-0.10938 0.78125-0.78125 1.3594-1.5469 1.3594h-0.20312c-0.85938-0.10938-1.4531-0.89062-1.3438-1.75zm-18.875 11.078c0.28125-0.53125 0.60938-1.0469 0.96875-1.5469 0.51562-0.70312 1.4844-0.84375 2.1875-0.34375 0.70312 0.51562 0.84375 1.4844 0.34375 2.1875-0.26562 0.375-0.51562 0.76562-0.73438 1.1719-0.28125 0.53125-0.82812 0.82812-1.375 0.82812-0.25 0-0.5-0.0625-0.73438-0.1875-0.76562-0.40625-1.0469-1.3594-0.64062-2.1094zm5.6406-17.984c0-0.85938 0.70312-1.5625 1.5625-1.5625h1.6094c0.85938 0 1.5625 0.70312 1.5625 1.5625s-0.70312 1.5625-1.5625 1.5625h-1.6094c-0.85938 0-1.5625-0.70312-1.5625-1.5625zm-7.2188 25.781v-0.78125c0-0.85938 0.70312-1.5625 1.5625-1.5625s1.5625 0.70312 1.5625 1.5625v0.78125c0 0.85938-0.70312 1.5625-1.5625 1.5625s-1.5625-0.70312-1.5625-1.5625z"/>
</svg>
