<!-- Icon from noun project -->
<svg width="22" height="22" viewBox="-1 -1 21 21" fill="none" xmlns="http://www.w3.org/2000/svg">
  <path class="fill-current" d="M5.44849 1.34766C4.33989 1.34766 3.40789 2.11094 3.12809 3.13516L1.87809 3.13437C1.71169 3.13437 1.55153 3.2 1.43355 3.31797C1.31558 3.43594 1.24996 3.59531 1.25074 3.76251C1.25152 3.92813 1.31793 4.08673 1.43512 4.20313C1.55308 4.32032 1.71246 4.38516 1.87808 4.38438H3.12574C3.40386 5.41094 4.33824 6.17734 5.44834 6.17734C6.54756 6.17734 7.47414 5.42578 7.76314 4.41484L18.1255 4.38437V4.38515C18.2912 4.38437 18.4498 4.31796 18.5669 4.20078C18.6841 4.08359 18.7497 3.92422 18.749 3.7586C18.7482 3.41406 18.4693 3.13516 18.1255 3.13516L7.78013 3.16562C7.51059 2.12578 6.56763 1.34766 5.44813 1.34766L5.44849 1.34766ZM5.44849 2.59766C6.10005 2.59766 6.61411 3.11094 6.61411 3.7625C6.61411 4.41406 6.09927 4.92812 5.44849 4.92812C4.79693 4.92812 4.28365 4.41328 4.28365 3.7625C4.28365 3.11094 4.79693 2.59766 5.44849 2.59766ZM12.1259 7.38746C10.9993 7.38746 10.0509 8.1648 9.77129 9.20622H1.87829C1.71189 9.20622 1.55251 9.27106 1.43533 9.38825C1.31736 9.50544 1.25096 9.66403 1.25096 9.83043C1.25017 9.99683 1.31658 10.1562 1.43455 10.2742C1.55174 10.3914 1.71189 10.457 1.87831 10.4562H9.77291C10.0534 11.4976 11.0002 12.2765 12.1261 12.2765C13.252 12.2765 14.1987 11.4984 14.4801 10.4562H18.1261C18.2917 10.4562 18.4503 10.3898 18.5675 10.2726C18.6847 10.1554 18.7503 9.99607 18.7495 9.83045C18.7488 9.48591 18.4699 9.20701 18.1261 9.20623H14.4807C14.201 8.16483 13.2526 7.38747 12.1261 7.38747L12.1259 7.38746ZM12.1259 8.63746C12.7939 8.63746 13.322 9.16246 13.322 9.83042C13.322 10.4984 12.7939 11.0265 12.1259 11.0265C11.4579 11.0265 10.9298 10.4984 10.9298 9.83042C10.9298 9.16244 11.4579 8.63746 12.1259 8.63746ZM7.26889 13.7593C6.14311 13.7593 5.19549 14.5374 4.91429 15.578L1.87829 15.5788C1.71189 15.578 1.55173 15.6436 1.43375 15.7616C1.31578 15.8796 1.25016 16.039 1.25094 16.2062C1.25172 16.3718 1.31813 16.5304 1.43532 16.6475C1.55328 16.764 1.71266 16.8288 1.87828 16.8288H4.91268C5.19158 17.8726 6.14158 18.6522 7.26888 18.6522C8.39618 18.6522 9.34468 17.8718 9.62348 16.8288H18.1259C18.4696 16.828 18.7485 16.5499 18.7493 16.2061C18.7501 16.0397 18.6845 15.8804 18.5681 15.7632C18.4509 15.6452 18.2915 15.5788 18.1259 15.5788H9.62189C9.34143 14.5374 8.39377 13.7593 7.26869 13.7593L7.26889 13.7593ZM7.26889 15.0093C7.93685 15.0093 8.46499 15.5374 8.46499 16.2054C8.46499 16.8733 7.93687 17.4015 7.26889 17.4015C6.60091 17.4015 6.07279 16.8733 6.07279 16.2054C6.07279 15.5374 6.60091 15.0093 7.26889 15.0093Z"/>
</svg>
