<svg width="22" height="22" viewBox="0 0 22 22" fill="none" xmlns="http://www.w3.org/2000/svg">
  <path stroke="currentColor" stroke-width="2" d="M11.38 19.9322L3.4034 10.9316L3.39733 10.9248L3.39113 10.918C2.68544 10.1505 2.1241 8.89119 1.8967 7.48016C1.67005 6.07379 1.79813 4.65895 2.30861 3.59175C2.42294 3.35802 2.72911 2.89589 3.20961 2.43688C3.68663 1.9812 4.28378 1.57814 4.96211 1.38424C5.61986 1.19622 6.39844 1.19047 7.30621 1.58971C8.23322 1.99742 9.34382 2.85033 10.5856 4.46821L11.3984 5.52731L12.1862 4.44941C13.3639 2.83804 14.4405 1.9921 15.3494 1.58813C16.2401 1.19222 17.0262 1.19462 17.7058 1.3855C18.4053 1.58198 19.0282 1.99024 19.525 2.44867C20.0273 2.91222 20.3409 3.37145 20.4493 3.59214C20.9596 4.6601 21.0876 6.07486 20.8613 7.48084C20.6341 8.89176 20.0733 10.1509 19.3685 10.9185L19.3625 10.925L19.3567 10.9316L11.38 19.9322Z" />
</svg>
