<!--
  From Noun project
  Hello by un·delivered
  -->
<svg width="22" height="22" version="1.1" viewBox="0 0 100 100" xmlns="http://www.w3.org/2000/svg">
  <g class="fill-current">
    <path d="m76.492 57.457c0.003906 2.1055-0.83203 4.125-2.3203 5.6094-0.33984 0.33203-0.79297 0.51562-1.2656 0.51953-0.72266 0.003906-1.375-0.43359-1.6523-1.0977-0.27734-0.66797-0.12109-1.4375 0.39062-1.9492 1.6953-1.707 1.6953-4.4609 0-6.168-0.69922-0.69531-0.69922-1.8281 0-2.5273 0.69531-0.69531 1.8281-0.69531 2.5273 0 1.4883 1.4883 2.3242 3.5078 2.3203 5.6133z" fill="#fff"/>
    <path d="m41.965 41.703l-6.1797-6.1797 0.089844 0.078124z"/>
    <path d="m78.039 41.828c-0.33203-0.39062-0.68359-0.76562-1.0469-1.1172l-11.137-11.133c-2.0352-2.0352-5.1719-2.4766-7.6953-1.0859l-8.4219-8.4297h0.003907c-2.7344-2.7148-7.1484-2.7148-9.8828 0-0.85938 0.85156-1.4766 1.918-1.7891 3.0859-2.8633-2.4102-7.1172-2.1367-9.6445 0.61719-2.5273 2.7578-2.4336 7.0195 0.21484 9.6641l0.40234 0.40234v-0.003906c-2.3867 0.67578-4.2344 2.5625-4.8594 4.9609-0.625 2.3984 0.0625 4.9453 1.8125 6.7031l1.2148 1.2148c-1.1562 0.3125-2.207 0.92969-3.0469 1.7812-2.7109 2.7305-2.7109 7.1367 0 9.8672l17.625 17.625c4.6992 4.7266 11.078 7.3945 17.742 7.4219h0.13672c6.5781 0.023437 12.895-2.5859 17.539-7.2461 4.4922-4.5312 7.082-10.613 7.2383-16.996 0.15625-6.3828-2.1367-12.586-6.4062-17.332zm-3.3984 31.773c-3.9961 4.0273-9.457 6.2617-15.129 6.1992-5.7227-0.015625-11.203-2.3047-15.234-6.3633l-17.625-17.625c-0.63672-0.64062-0.99219-1.5078-0.98047-2.4102-0.007813-0.90625 0.34375-1.7773 0.98047-2.418 1.3555-1.2734 3.4688-1.2734 4.8281 0l12.328 12.309c0.70312 0.62891 1.7773 0.60156 2.4492-0.066407 0.66797-0.67187 0.69531-1.7461 0.066407-2.4492l-12.281-12.289-5.5234-5.5234h0.003907c-1.332-1.332-1.332-3.4922 0-4.8281 1.3516-1.2852 3.4727-1.2852 4.8281 0l15.125 15.129c0.69922 0.69531 1.8281 0.69141 2.5234-0.003906 0.69531-0.69922 0.69141-1.8281-0.007812-2.5234l-19.836-19.836c-1.3203-1.3398-1.3203-3.4883 0-4.8281 1.3594-1.2812 3.4805-1.2812 4.8359 0l17.234 17.234c0.69922 0.69531 1.8281 0.69531 2.5273 0 0.69531-0.69922 0.69531-1.8281 0-2.5273l-8.8125-8.8125-4.5547-4.5508c-1.332-1.3359-1.332-3.4961 0-4.8281 1.3516-1.2852 3.4766-1.2852 4.8281 0l8.4219 8.4297c-1.3906 2.5195-0.94922 5.6562 1.0859 7.6953l4.6211 4.6211c-2.9062 3.7148-2.8164 8.9609 0.21484 12.574 0.035156 0.042969 0.074218 0.082032 0.11719 0.11719 0.64453 0.66016 1.6914 0.71094 2.3984 0.11719 0.36719-0.30469 0.59375-0.73828 0.63672-1.2109 0.042968-0.47266-0.10547-0.94141-0.41016-1.3047-2.1562-2.5703-1.9766-6.3633 0.41016-8.7148 0.0625-0.066406 0.125-0.12891 0.19531-0.1875 0.41406-0.3125 0.67188-0.78906 0.70703-1.3047 0.035157-0.51562-0.15625-1.0195-0.51953-1.3867l-5.875-5.875c-0.80859-1.168-0.66406-2.75 0.33984-3.75 1.0078-1.0039 2.5859-1.1445 3.7539-0.33203l11.102 11.152c0.30469 0.30469 0.58594 0.60547 0.88281 0.98047v-0.003907c3.6562 4.0625 5.6289 9.3633 5.5039 14.828-0.12109 5.4648-2.3242 10.676-6.1602 14.566z"/>
    <path d="m76.492 57.457c0.003906 2.1055-0.83203 4.125-2.3203 5.6094-0.33984 0.33203-0.79297 0.51562-1.2656 0.51953-0.72266 0.003906-1.375-0.43359-1.6523-1.0977-0.27734-0.66797-0.12109-1.4375 0.39062-1.9492 1.6953-1.707 1.6953-4.4609 0-6.168-0.69922-0.69531-0.69922-1.8281 0-2.5273 0.69531-0.69531 1.8281-0.69531 2.5273 0 1.4883 1.4883 2.3242 3.5078 2.3203 5.6133z"/>
    <path d="m69.215 28.531c-0.98438 0-1.7812-0.79688-1.7812-1.7812-0.003906-2.4023-1.9531-4.3516-4.3555-4.3555-0.98828 0-1.7891-0.80078-1.7891-1.7891 0-0.98438 0.80078-1.7852 1.7891-1.7852 4.375 0.003907 7.9258 3.5508 7.9297 7.9297 0 0.47266-0.1875 0.92969-0.52734 1.2656-0.33594 0.33203-0.78906 0.51953-1.2656 0.51562z"/>
    <path d="m75.324 28.16c-0.98438 0-1.7812-0.79688-1.7812-1.7812-0.003907-5.5781-4.5273-10.098-10.105-10.098-0.98438 0-1.7852-0.79688-1.7852-1.7852 0-0.98828 0.80078-1.7852 1.7852-1.7852 7.5703 0 13.711 6.1367 13.711 13.707-0.011719 0.47266-0.21094 0.92188-0.55078 1.25-0.34375 0.32422-0.80078 0.50391-1.2734 0.49219z"/>
    <path d="m25.703 72.047c-4.3789-0.007813-7.9258-3.5547-7.9336-7.9336 0-0.98438 0.80078-1.7852 1.7891-1.7852 0.98828 0 1.7852 0.80078 1.7852 1.7852 0.007812 2.4062 1.9531 4.3516 4.3594 4.3594 0.98438 0 1.7852 0.80078 1.7852 1.7852 0 0.98828-0.80078 1.7891-1.7852 1.7891z"/>
    <path d="m25.332 78.156c-7.5742 0-13.711-6.1367-13.711-13.707 0-0.98828 0.80078-1.7891 1.7891-1.7891 0.98438 0 1.7852 0.80078 1.7852 1.7891-0.007812 2.6875 1.0586 5.2695 2.9609 7.1719s4.4844 2.9688 7.1758 2.9609c0.98438 0 1.7852 0.80078 1.7852 1.7852 0 0.98828-0.80078 1.7891-1.7852 1.7891z"/>
  </g>
</svg>
