<!--
From noun project
History by Alzam
-->
<svg width="100pt" height="100pt" version="1.1" viewBox="0 0 100 100" xmlns="http://www.w3.org/2000/svg">
  <path fill="currentColor" d="m51.781 11.77c-14.984 0-28.379 8.7344-34.605 21.926l-1.4336-4.7109c-0.22656-0.75-0.73828-1.3789-1.4258-1.75s-1.4961-0.45312-2.2461-0.22656c-1.5547 0.47656-2.4258 2.1172-1.9531 3.6719l3.6016 11.852c0.46484 1.5156 2.0508 2.3906 3.5859 1.9727l11.613-3.168c0.75781-0.20703 1.3984-0.70313 1.7852-1.3867 0.38672-0.67969 0.48828-1.4844 0.27734-2.2383-0.42578-1.5664-2.043-2.4883-3.6055-2.0625l-5.2734 1.4492c5.0703-11.676 16.637-19.445 29.684-19.445 17.91 0 32.348 14.445 32.348 32.348s-14.438 32.352-32.348 32.352c-14.688 0-27.52-9.8438-31.289-24.035h-0.003906c-0.20313-0.75391-0.69531-1.3984-1.3711-1.7891-0.67578-0.39062-1.4766-0.5-2.2305-0.29688-1.5625 0.41797-2.4961 2.0195-2.0859 3.582 4.4492 16.738 19.652 28.418 36.977 28.418 21.086 0 38.23-17.152 38.23-38.234 0-21.082-17.141-38.23-38.23-38.23zm-1.9375 18.453v-0.003906c-1.6133 0.007812-2.9219 1.3125-2.9297 2.9297v21.668c-0.003906 1.0586 0.5625 2.0352 1.4766 2.5625l13.785 7.8398h0.003907c0.67969 0.38672 1.4844 0.48828 2.2383 0.28125 0.75391-0.21094 1.3906-0.70703 1.7773-1.3906 0.38672-0.67578 0.48438-1.4844 0.27734-2.2344-0.20703-0.75391-0.70703-1.3945-1.3867-1.7773l-12.289-6.9922v-19.957c0-0.78125-0.3125-1.5273-0.86719-2.0781-0.55469-0.54687-1.3047-0.85547-2.0859-0.85156z" fill-rule="evenodd"/>
</svg>
