<!-- Icon from noun project -->
<svg width="22" height="22" version="1.1" viewBox="0 0 100 100" xmlns="http://www.w3.org/2000/svg">
  <g fill="currentColor">
    <path d="m27.188 95c0.65234 0 1.3164-0.058594 1.9805-0.17578l51.84-9.1406c5.5039-0.97266 9.3711-5.75 9.3711-11.156 0-0.65234-0.058594-1.3164-0.17578-1.9805l-6.2383-35.383c-0.97266-5.5039-5.75-9.3711-11.156-9.3711-0.65234 0-1.3164 0.058593-1.9805 0.17578l-10.027 1.7695-12.867-15.434c0.24609-0.71875 0.38672-1.4844 0.38672-2.2734 0-0.40625-0.035156-0.81641-0.10937-1.2266-0.60547-3.4062-3.5625-5.8047-6.9102-5.8047-0.40625 0-0.81641 0.035156-1.2266 0.10938-3.4062 0.60547-5.8047 3.5586-5.8047 6.9102 0 0.40625 0.035157 0.81641 0.10938 1.2266 0.18359 1.0234 0.57812 1.9531 1.1328 2.7578l-7.0078 19.43-9.5117 1.6758c-5.5039 0.97266-9.3711 5.75-9.3711 11.156 0 0.65234 0.058594 1.3164 0.17578 1.9805l6.2383 35.383c0.96875 5.5 5.7461 9.3711 11.152 9.3711zm13.391-87.031c0.24219-0.042969 0.48438-0.0625 0.72266-0.0625 1.957 0 3.6992 1.4062 4.0508 3.4062 0.042969 0.24219 0.0625 0.48438 0.0625 0.72266 0 1.9531-1.4062 3.6992-3.4062 4.0508-0.24219 0.042968-0.48437 0.0625-0.72266 0.0625-1.957 0-3.6992-1.4062-4.0508-3.4062-0.042969-0.24219-0.0625-0.48438-0.0625-0.72266 0.003906-1.957 1.4102-3.7031 3.4062-4.0508zm-2.75 10.16c1.0312 0.58594 2.2188 0.91797 3.457 0.91797 0.40234 0 0.81641-0.035156 1.2266-0.10547 1.5117-0.26953 2.8242-1 3.8164-2.0234l11.18 13.402-25.711 4.5312zm-25.305 30.137c0-4.0117 2.8828-7.5781 6.9727-8.2969l10.121-1.7852c0.13672-0.003906 0.26953-0.027344 0.39844-0.070313l30.289-5.3398c0.13281-0.003907 0.26562-0.027344 0.39844-0.070313l10.637-1.875c0.49609-0.089844 0.99219-0.12891 1.4766-0.12891 4.0117 0 7.5781 2.8789 8.2969 6.9727l6.2383 35.383c0.089844 0.49609 0.12891 0.99219 0.12891 1.4766 0 4.0117-2.8828 7.5781-6.9727 8.2969l-51.84 9.1406c-0.49609 0.089844-0.99219 0.12891-1.4766 0.12891-4.0117 0-7.5781-2.8828-8.2969-6.9727l-6.2383-35.383c-0.09375-0.5-0.13281-0.99219-0.13281-1.4766z"/>
    <path d="m34.82 63.867c1.2305 7.5469 7.75 12.906 15.16 12.906 0.82031 0 1.6523-0.066407 2.4883-0.20313 7.5469-1.2305 12.906-7.75 12.906-15.16 0-0.82031-0.066406-1.6523-0.20312-2.4883-1.2305-7.5469-7.75-12.906-15.16-12.906-0.82031 0-1.6523 0.066406-2.4883 0.20312-7.5469 1.2305-12.906 7.75-12.906 15.16 0.003906 0.82031 0.070312 1.6523 0.20312 2.4883zm17.188 9.8438c-0.67969 0.10937-1.3555 0.16406-2.0234 0.16406-6 0-11.301-4.3516-12.297-10.473-0.10938-0.67969-0.16406-1.3555-0.16406-2.0234 0-2.1602 0.57031-4.2266 1.5781-6.0352l20.094 14.465c-1.8281 2-4.3086 3.4336-7.1875 3.9023zm-4.0156-24.625c0.67969-0.10938 1.3555-0.16406 2.0234-0.16406 6 0 11.301 4.3516 12.297 10.473 0.10938 0.67969 0.16406 1.3555 0.16406 2.0234 0 2.1602-0.57031 4.2305-1.582 6.0391l-20.094-14.469c1.8281-2.0039 4.3086-3.4336 7.1914-3.9023z"/>
  </g>
</svg>
