<svg width="22" height="22" viewBox="2 2 18 20" xmlns="http://www.w3.org/2000/svg">
  <path d="M9.11113 13.7701L6.30246 13.2329C6.05484 13.1918 5.80722 13.3362 5.76526 13.5838C5.72412 13.8314 5.8685 14.079 6.11613 14.121L8.90374 14.6582H8.98601C9.1925 14.6582 9.39899 14.5138 9.44012 14.2863C9.50304 14.0589 9.35866 13.8322 9.11102 13.7701H9.11113Z" fill="currentColor"/>
  <path d="M9.11114 15.9172L6.30246 15.3599C6.05484 15.3187 5.80722 15.4631 5.76526 15.7107C5.72412 15.9584 5.8685 16.206 6.11613 16.2479L8.9248 16.8053H9.00707C9.21356 16.8053 9.42005 16.6609 9.46119 16.4334C9.50313 16.2068 9.35875 15.9584 9.11112 15.9172H9.11114Z" fill="currentColor"/>
  <path d="M9.11113 18.0443L6.30246 17.5071C6.05484 17.4449 5.80722 17.6103 5.76526 17.8579C5.72412 18.1055 5.8685 18.3532 6.11613 18.3951L8.90374 18.9323H8.98601C9.1925 18.9323 9.39899 18.788 9.44012 18.5605C9.50304 18.333 9.35866 18.1064 9.11102 18.0443H9.11113Z" fill="currentColor"/>
  <path d="M17.5972 10.8171C17.494 10.7348 17.3496 10.6929 17.2254 10.7139L13.4264 11.4576V11.7463C13.4264 11.9939 13.3643 12.2214 13.2409 12.4279L16.8334 11.7254V19.3655L11.2992 20.439V14.183C11.1548 14.204 11.0105 14.2242 10.8451 14.2242C10.6798 14.2242 10.5354 14.2032 10.391 14.183V20.4599L4.85688 19.3863V11.7462L8.47045 12.4479C8.34623 12.2415 8.28493 12.014 8.28493 11.7664V11.4776L4.48593 10.7339C4.34155 10.7129 4.21733 10.7339 4.11408 10.8372C4.01084 10.9194 3.94873 11.0436 3.94873 11.188V19.7573C3.94873 19.9848 4.09311 20.1703 4.32058 20.2115L10.7839 21.4714H10.8662H10.9485L17.4118 20.2115C17.6183 20.1703 17.7836 19.984 17.7836 19.7573V11.1678C17.7627 11.0234 17.7006 10.8992 17.5973 10.8169L17.5972 10.8171Z" fill="currentColor"/>
  <path d="M15.9252 13.5837C15.8841 13.336 15.6365 13.1707 15.388 13.2328L12.6004 13.77C12.3528 13.8111 12.1875 14.0588 12.2496 14.3072C12.2907 14.5347 12.477 14.6791 12.7037 14.6791H12.786L15.5533 14.1209C15.801 14.0798 15.9663 13.8321 15.9252 13.5837L15.9252 13.5837Z" fill="currentColor"/>
  <path d="M15.9252 15.7318C15.8841 15.4842 15.6365 15.3188 15.388 15.3809L12.6004 15.9181C12.3528 15.9593 12.1875 16.2069 12.2496 16.4553C12.2907 16.6828 12.477 16.8272 12.7037 16.8272H12.786L15.5736 16.29C15.801 16.2069 15.9664 15.9794 15.9252 15.7318L15.9252 15.7318Z" fill="currentColor"/>
  <path d="M15.388 17.5069L12.5793 18.0441C12.3317 18.0853 12.1663 18.3329 12.2284 18.5813C12.2696 18.8088 12.4559 18.9532 12.6826 18.9532H12.7648L15.5524 18.416C15.8001 18.3749 15.9654 18.1272 15.9033 17.8788C15.863 17.6102 15.6355 17.4456 15.3879 17.5069H15.388Z" fill="currentColor"/>
  <path d="M8.5116 9.41278C8.84232 9.82576 9.06896 10.2387 9.21334 10.6517V11.7664C9.21334 11.9318 9.29561 12.0762 9.44081 12.1584L9.48194 12.1794C9.60616 12.8199 10.1635 13.2949 10.8451 13.2949C11.5267 13.2949 12.084 12.8198 12.2083 12.1802L12.2494 12.1592C12.3938 12.077 12.4769 11.9318 12.4769 11.7672V10.6727C12.6213 10.2597 12.8487 9.84672 13.1786 9.43374C13.6126 8.87638 13.8392 8.17382 13.8191 7.45111C13.757 5.92342 12.4979 4.68456 10.9904 4.60135C10.1644 4.56021 9.37957 4.84897 8.80115 5.4273C8.20266 5.98466 7.87195 6.76949 7.87195 7.57438C7.87195 8.23579 8.07844 8.87624 8.51159 9.41262L8.5116 9.41278ZM11.5468 11.4987C11.4024 11.581 11.3193 11.7262 11.3193 11.8907C11.3193 12.1593 11.1128 12.3658 10.8442 12.3658C10.5756 12.3658 10.3691 12.1593 10.3691 11.8907C10.3691 11.7254 10.2869 11.581 10.1417 11.4987H10.1207V11.1269H11.5452L11.5468 11.4987ZM9.42057 6.06786C9.83355 5.67586 10.3708 5.46937 10.9281 5.5105C11.9815 5.55164 12.8277 6.41872 12.8898 7.47215C12.9107 7.9674 12.7454 8.44249 12.4558 8.83531C12.1049 9.28942 11.8573 9.72338 11.671 10.1775H10.0191C9.85371 9.72338 9.5851 9.26927 9.23424 8.81433C8.94548 8.44249 8.80028 8.00935 8.80028 7.55442C8.80108 6.99706 9.02775 6.45986 9.42055 6.06786H9.42057Z" fill="currentColor"/>
  <path d="M10.8452 3.81753C11.0928 3.81753 11.2993 3.61104 11.2993 3.36341V2.28903C11.2993 2.0414 11.0928 1.83492 10.8452 1.83492C10.5976 1.83492 10.3911 2.0414 10.3911 2.28903V3.34246C10.3911 3.61106 10.5976 3.81755 10.8452 3.81755V3.81753Z" fill="currentColor"/>
  <path d="M7.54143 4.91111C7.6237 4.99338 7.74792 5.05549 7.87214 5.05549C7.99636 5.05549 8.09961 5.01435 8.20286 4.91111C8.38838 4.72559 8.38838 4.43602 8.20286 4.25051L7.45916 3.50681C7.27365 3.3213 6.98407 3.3213 6.79856 3.50681C6.61304 3.69233 6.61304 3.98191 6.79856 4.16742L7.54143 4.91111Z" fill="currentColor"/>
  <path d="M5.57972 8.0295H6.63315C6.88077 8.0295 7.08726 7.82301 7.08726 7.57539C7.08726 7.32777 6.88077 7.12128 6.63315 7.12128H5.57972C5.3321 7.12128 5.12561 7.32777 5.12561 7.57539C5.12561 7.82301 5.3321 8.0295 5.57972 8.0295Z" fill="currentColor"/>
  <path d="M14.603 7.55436C14.603 7.80199 14.8095 8.00848 15.0571 8.00848H16.1106C16.3582 8.00848 16.5647 7.80199 16.5647 7.55436C16.5647 7.30674 16.3582 7.10025 16.1106 7.10025H15.0571C14.8095 7.10025 14.603 7.30674 14.603 7.55436Z" fill="currentColor"/>
  <path d="M13.8181 5.0354C13.9424 5.0354 14.0456 4.99426 14.1489 4.89101L14.8926 4.14732C15.0781 3.9618 15.0781 3.67223 14.8926 3.48672C14.707 3.3012 14.4175 3.3012 14.232 3.48672L13.4883 4.23041C13.3027 4.41593 13.3027 4.7055 13.4883 4.89101C13.5915 4.99426 13.7149 5.0354 13.8182 5.0354H13.8181Z" fill="currentColor"/>
</svg>
