<svg version="1.0" xmlns="http://www.w3.org/2000/svg"
 width="256.000000pt" height="256.000000pt" viewBox="0 0 256.000000 256.000000"
 preserveAspectRatio="xMidYMid meet">
  <g transform="translate(0.000000,256.000000) scale(0.100000,-0.100000)"
  fill="currentColor" stroke="none">
    <path fill="currentColor" d="M1115 2549 c-296 -43 -570 -218 -744 -475 -159 -236 -220 -558 -151
    -804 95 -340 412 -727 1001 -1222 l55 -47 165 142 c503 435 788 792 885 1112
    24 80 27 106 28 235 0 158 -17 253 -73 390 -120 295 -364 524 -666 625 -142
    48 -348 66 -500 44z m205 -909 l0 -400 200 0 200 0 0 -180 0 -180 -405 0 -405
    0 0 580 0 580 205 0 205 0 0 -400z"/>
  </g>
</svg>
