<?xml version="1.0" encoding="utf-8"?>
<!-- Generator: Adobe Illustrator 19.1.0, SVG Export Plug-In . SVG Version: 6.00 Build 0)  -->
<!DOCTYPE svg PUBLIC "-//W3C//DTD SVG 1.1//EN" "http://www.w3.org/Graphics/SVG/1.1/DTD/svg11.dtd">
<svg version="1.1" id="Layer_1" xmlns="http://www.w3.org/2000/svg" xmlns:xlink="http://www.w3.org/1999/xlink" x="0px" y="0px"
	 viewBox="0 0 332.3 129.9" enable-background="new 0 0 332.3 129.9" xml:space="preserve">
<g>
	<defs>
		<rect id="SVGID_1_" width="332.3" height="129.9"/>
	</defs>
	<clipPath id="SVGID_2_">
		<use xlink:href="#SVGID_1_"  overflow="visible"/>
	</clipPath>
	<path clip-path="url(#SVGID_2_)" fill="#618467" d="M61.4,5.1C27.5,5.1,0,32.6,0,66.5c0,13.5,4.4,26,11.7,36.1l15.4-9.3
		c2.5,3.2,5.4,6,8.6,8.3l-8.8,15.7c9.8,6.7,21.7,10.6,34.4,10.6c33.9,0,61.4-27.5,61.4-61.4C122.7,32.6,95.2,5.1,61.4,5.1
		 M87.2,101.1H43.5V87.9l-5.2,9.2c-2.5-1.9-4.8-4.1-6.7-6.5l11.9-7.2V35.8h22.1v46.4h21.7V101.1z"/>
	<path clip-path="url(#SVGID_2_)" fill="#175278" d="M161.1,47L138,6c7.1-3.3,14.9-5.4,23-6V47z M166.2,5.1v50.9l6.7,11.8V35.8h19
		h1.9v65.2h-22.4l-17.5-30.2v30.2h-11.7h-9.2V35.8h16L136.1,13c-18.7,10.5-31.3,30.5-31.3,53.5c0,33.9,27.5,61.4,61.4,61.4
		s61.4-27.5,61.4-61.4C227.5,32.6,200.1,5.1,166.2,5.1"/>
	<path clip-path="url(#SVGID_2_)" fill="#C40066" d="M332.3,66.5c0-33.9-27.5-61.4-61.4-61.4c-33.9,0-61.4,27.5-61.4,61.4
		c0,33.9,27.5,61.4,61.4,61.4c14,0,26.9-4.7,37.2-12.6l24.1,14.7l-13.8-24.6C327.1,94.7,332.3,81.2,332.3,66.5 M301.5,75.4
		c0,3.9-0.7,7.5-2,10.8c-1.3,3.3-3.3,6.3-5.9,8.7c-2.6,2.5-5.8,4.4-9.6,5.8c-1.4,0.5-2.9,0.9-4.4,1.3c-0.4-4.4-4.1-7.8-8.6-7.8
		c-4.5,0-8.3,3.5-8.6,7.9c-1.8-0.3-3.5-0.8-5.1-1.4c-3.8-1.4-6.9-3.3-9.4-5.8c-2.5-2.5-4.4-5.4-5.6-8.7c-1.2-3.3-1.8-7-1.8-10.8
		V35.8h21.9v37.2c0,3.1,0.8,5.6,2.3,7.3c1.5,1.8,3.6,2.6,6.4,2.6c2.8,0,4.9-0.9,6.4-2.6c1.5-1.8,2.3-4.2,2.3-7.3V35.8h21.8V75.4z"/>
</g>
</svg>
