<svg width="22" height="22" viewBox="-6 -4 22 22" fill="none" xmlns="http://www.w3.org/2000/svg">
<path d="M4.39475 14.5655H5.65186L5.66251 13.3351C7.96897 13.1593 9.30598 11.9341 9.3113 10.0858C9.30598 8.26938 7.93701 7.30524 6.04071 6.87911L5.72643 6.80453L5.74774 4.14118C6.45619 4.30631 6.88765 4.75908 6.95157 5.43024H9.16215C9.13552 3.6671 7.81982 2.40467 5.76904 2.18095L5.7797 0.929176H4.52259L4.51194 2.1703C2.4292 2.37271 0.959029 3.62982 0.969682 5.44622C0.964355 7.05489 2.09894 7.97641 3.94198 8.41852L4.45335 8.54636L4.42671 11.3642C3.55846 11.1991 2.97252 10.6664 2.91393 9.77683H0.68204C0.735307 11.9288 2.14688 13.1327 4.40541 13.3297L4.39475 14.5655ZM5.68382 11.3642L5.70512 8.87662C6.53076 9.13763 6.97821 9.47321 6.98353 10.0805C6.97821 10.725 6.48815 11.2044 5.68382 11.3642ZM4.46933 6.4796C3.80349 6.25055 3.32409 5.90432 3.33474 5.29175C3.33474 4.72179 3.73957 4.27967 4.49063 4.1252L4.46933 6.4796Z" fill="currentColor"/>
</svg>
