<!-- Icon from noun project -->
<svg width="22" height="22" viewBox="0 0 22 22" fill="none" xmlns="http://www.w3.org/2000/svg">
<path class="fill-current" d="M16.2309 2.4466C14.8843 1.23403 13.0202 0.583466 11 0.583466C8.95721 0.583466 7.11652 1.23486 5.76902 2.4466C4.13019 3.88347 3.27686 6.0612 3.27686 8.732C3.27686 14.4564 9.74199 20.8767 9.78753 20.9213C10.1244 21.2582 10.5507 21.4378 11.0001 21.4378C11.4719 21.4378 11.9429 21.2359 12.235 20.9213C12.504 20.6523 18.7457 14.3884 18.7457 8.732C18.7449 6.06098 17.8691 3.88342 16.2311 2.4466H16.2309ZM11 12.6388C8.68732 12.6388 6.80192 10.7309 6.80192 8.39606C6.80192 6.0612 8.68738 4.13092 11 4.13092C13.3125 4.13092 15.198 6.06107 15.198 8.39606C15.198 10.7309 13.3125 12.6388 11 12.6388V12.6388Z" />
</svg>
