<!-- Exchange by Eko Purnomo, from noun project -->
<svg fill="currentColor" width="16" height="16" version="1.1" viewBox="0 0 100 100" xmlns="http://www.w3.org/2000/svg">
  <path d="m41.629 26.281h-19.754c-4.1836 0-7.5898 3.4023-7.5898 7.5898v32.258c0 3.2891-2.6641 5.9531-5.9531 5.9531-3.2891 0-5.9531-2.6641-5.9531-5.9531l0.003906-32.258c0-10.75 8.7461-19.492 19.492-19.492h19.754l-1.8359-1.8359c-2.3242-2.3242-2.3242-6.0938 0-8.418s6.0938-2.3242 8.418 0l11.996 11.996c1.1172 1.1172 1.7422 2.6289 1.7422 4.2109 0 1.5781-0.62891 3.0938-1.7422 4.2109l-11.996 11.992c-1.1641 1.1641-2.6836 1.7422-4.2109 1.7422-1.5234 0-3.0469-0.58203-4.2109-1.7422-2.3242-2.3242-2.3242-6.0938 0-8.418zm50.039 1.6367c-3.2891 0-5.9531 2.6641-5.9531 5.9531v32.258c0 4.1836-3.4023 7.5898-7.5898 7.5898h-19.754l1.8359-1.8359c2.3242-2.3242 2.3242-6.0938 0-8.418-2.3242-2.3242-6.0938-2.3242-8.418 0l-11.996 11.996c-1.1172 1.1172-1.7422 2.6289-1.7422 4.2109 0 1.5781 0.62891 3.0938 1.7422 4.2109l11.996 11.996c1.1641 1.1641 2.6836 1.7422 4.2109 1.7422 1.5234 0 3.0469-0.58203 4.2109-1.7422 2.3242-2.3242 2.3242-6.0938 0-8.418l-1.8359-1.8359h19.75c10.75 0 19.492-8.7461 19.492-19.492v-32.262c0-3.2891-2.6641-5.9531-5.9492-5.9531z"/>
</svg>
