<!-- Icon from noun project -->
<svg width="22" height="22" viewBox="0 0 22 22" fill="none" xmlns="http://www.w3.org/2000/svg">
  <path class="fill-current" d="M16.5283 15.2319L20.4544 19.1571L19.1573 20.4542L15.2322 16.5281C13.7717 17.6989 11.9551 18.3357 10.0833 18.333C5.52925 18.333 1.83325 14.637 1.83325 10.083C1.83325 5.52901 5.52925 1.83301 10.0833 1.83301C14.6373 1.83301 18.3333 5.52901 18.3333 10.083C18.3359 11.9548 17.6991 13.7714 16.5283 15.2319ZM14.6895 14.5518C15.8529 13.3554 16.5025 11.7517 16.4999 10.083C16.4999 6.53734 13.628 3.66634 10.0833 3.66634C6.53758 3.66634 3.66659 6.53734 3.66659 10.083C3.66659 13.6278 6.53758 16.4997 10.0833 16.4997C11.752 16.5023 13.3556 15.8526 14.552 14.6893L14.6895 14.5518V14.5518Z" />
</svg>

