<!-- Icon from noun project -->
<svg width="22" height="22" viewBox="0 0 23 23" fill="none" xmlns="http://www.w3.org/2000/svg">
  <path stroke-width="3%" stroke="rgb(219, 39, 119)" fill="#F472B6" d="M10.62 1.30882C10.8297 0.885139 11.1718 0.885139 11.3806 1.30882L14.0188 6.65504C14.2285 7.07871 14.782 7.48175 15.2495 7.54878L21.1499 8.40815C21.6174 8.47604 21.7239 8.80175 21.3853 9.13175L17.116 13.2928C16.7774 13.6228 16.566 14.2742 16.6459 14.74L17.6531 20.6164C17.733 21.0822 17.4555 21.2833 17.0378 21.0633L11.7604 18.2876C11.3419 18.0676 10.657 18.0676 10.2393 18.2876L4.96197 21.0615C4.54346 21.2815 4.26673 21.0804 4.34665 20.6147L5.35469 14.7383C5.43461 14.2725 5.22321 13.6211 4.88462 13.2911L0.615297 9.12999C0.276695 8.79999 0.382405 8.47514 0.850763 8.40639L6.75116 7.54702C7.21866 7.47914 7.77295 7.07609 7.9818 6.65328L10.62 1.30882Z" />
</svg>
