<!-- Adapted from icon from Noun project: Table View by Mike Rowe -->
<svg width="22" height="22" version="1.1" viewBox="0 0 100 100" xmlns="http://www.w3.org/2000/svg">
  <path class="fill-current" d="m82.605 87.359h-14.359v-19.176h19.113v14.422c0 2.8438-1.9102 4.7539-4.7539 4.7539m-69.965-4.7539v-14.422h18.727v19.176h-13.973c-2.8438 0-4.7539-1.9102-4.7539-4.7539m55.605-42.078h19.109v18.438h-19.109zm-36.879 18.438h-18.727v-18.438h18.727zm27.66 28.395h-18.438v-19.176h18.438zm-18.438-46.832h18.438v18.438h-18.438zm-23.195-27.887h65.211c2.8438 0 4.7539 1.9102 4.7539 4.7539v13.91h-74.719v-13.91c0-2.8438 1.9102-4.7539 4.7539-4.7539m65.211-9.2188h-65.211c-7.918 0-13.973 6.0547-13.973 13.973v65.211c0 7.918 6.0547 13.973 13.973 13.973h65.211c7.918 0 13.973-6.0547 13.973-13.973v-65.211c0-7.918-6.0547-13.973-13.973-13.973"/>
</svg>
