<svg width="20" height="20" xmlns="http://www.w3.org/2000/svg" viewBox="1 1 22 23"><path d="m17.867 15.752c-.192 0-.383-.073-.53-.219-.293-.293-.293-.768-.001-1.061l2.665-2.671c.967-.961 1.499-2.245 1.499-3.618 0-2.823-2.291-5.12-5.107-5.12-1.37 0-2.65.532-3.606 1.499l-2.667 2.673c-.293.294-.768.293-1.061.002-.293-.293-.293-.767-.001-1.06l2.665-2.671c1.237-1.252 2.896-1.942 4.67-1.942 3.643 0 6.607 2.97 6.607 6.62 0 1.776-.689 3.438-1.94 4.68l-2.663 2.668c-.146.147-.338.22-.53.22z"></path><path d="m7.607 23.608c-3.643 0-6.607-2.97-6.607-6.62 0-1.776.689-3.438 1.94-4.681l2.663-2.667c.292-.295.767-.294 1.061-.002.293.293.293.768.001 1.061l-2.665 2.671c-.968.96-1.5 2.244-1.5 3.618 0 2.823 2.291 5.12 5.107 5.12 1.369 0 2.649-.532 3.606-1.5l2.667-2.673c.292-.295.767-.294 1.061-.002.293.293.293.768.001 1.061l-2.665 2.671c-1.237 1.253-2.897 1.943-4.67 1.943z"></path><path d="m8 17.345c-.192 0-.383-.073-.53-.219-.293-.293-.293-.768-.001-1.061l8-8.018c.292-.295.767-.293 1.061-.002.293.293.293.768.001 1.061l-8 8.018c-.147.147-.339.221-.531.221z"></path></svg>
