<svg width="13" height="12" viewBox="0 0 13 12" fill="none" xmlns="http://www.w3.org/2000/svg">
<path class="fill-current text-yellow-400" d="M0.5 6C0.5 2.68629 3.18629 0 6.5 0V0C9.81371 0 12.5 2.68629 12.5 6V6C12.5 9.31371 9.81371 12 6.5 12V12C3.18629 12 0.5 9.31371 0.5 6V6Z" />
<path d="M2.75 5.25C2.3375 5.25 2 5.5875 2 6C2 6.4125 2.3375 6.75 2.75 6.75C3.1625 6.75 3.5 6.4125 3.5 6C3.5 5.5875 3.1625 5.25 2.75 5.25ZM10.25 5.25C9.8375 5.25 9.5 5.5875 9.5 6C9.5 6.4125 9.8375 6.75 10.25 6.75C10.6625 6.75 11 6.4125 11 6C11 5.5875 10.6625 5.25 10.25 5.25ZM6.5 5.25C6.0875 5.25 5.75 5.5875 5.75 6C5.75 6.4125 6.0875 6.75 6.5 6.75C6.9125 6.75 7.25 6.4125 7.25 6C7.25 5.5875 6.9125 5.25 6.5 5.25Z" fill="white"/>
</svg>
