<svg width="13" height="12" viewBox="0 0 13 12" fill="none" xmlns="http://www.w3.org/2000/svg">
<path class="fill-current text-gray-300" d="M0.5 6C0.5 2.68629 3.18629 0 6.5 0V0C9.81371 0 12.5 2.68629 12.5 6V6C12.5 9.31371 9.81371 12 6.5 12V12C3.18629 12 0.5 9.31371 0.5 6V6Z" />
<path d="M6.5 9.5C6.914 9.5 7.25 9.836 7.25 10.25C7.25 10.664 6.914 11 6.5 11C6.086 11 5.75 10.664 5.75 10.25C5.75 9.836 6.086 9.5 6.5 9.5ZM6.5 1C8.157 1 9.5 2.343 9.5 4C9.5 5.0825 9.1235 5.645 8.163 6.4615C7.1995 7.28 7 7.6485 7 8.5H6C6 7.263 6.3935 6.6525 7.5155 5.6995C8.274 5.055 8.5 4.717 8.5 4C8.5 2.895 7.605 2 6.5 2C5.395 2 4.5 2.895 4.5 4V4.5H3.5V4C3.5 2.343 4.843 1 6.5 1Z" fill="#F7FAFC"/>
</svg>
