<!-- From the noun project-->
<svg width="22" height="23" viewBox="0 0 22 23" fill="none" xmlns="http://www.w3.org/2000/svg">
<path d="M15.5833 2.95199H19.2499C19.493 2.95199 19.7262 3.04856 19.8981 3.22047C20.07 3.39238 20.1666 3.62554 20.1666 3.86865V18.5353C20.1666 18.7784 20.07 19.0116 19.8981 19.1835C19.7262 19.3554 19.493 19.452 19.2499 19.452H2.74992C2.5068 19.452 2.27365 19.3554 2.10174 19.1835C1.92983 19.0116 1.83325 18.7784 1.83325 18.5353V3.86865C1.83325 3.62554 1.92983 3.39238 2.10174 3.22047C2.27365 3.04856 2.5068 2.95199 2.74992 2.95199H6.41659V1.11865H8.24992V2.95199H13.7499V1.11865H15.5833V2.95199ZM13.7499 4.78532H8.24992V6.61865H6.41659V4.78532H3.66659V8.45199H18.3333V4.78532H15.5833V6.61865H13.7499V4.78532ZM18.3333 10.2853H3.66659V17.6187H18.3333V10.2853Z" fill="currentColor"/>
</svg>